<?xml version='1.0' encoding='utf8'?>
<svg xmlns="http://www.w3.org/2000/svg" enable-background="new 0 0 48 48" version="1.1" x="0px" xml:space="preserve" xmlns:xlink="http://www.w3.org/1999/xlink" y="0px">

<!--Paste your icons below-->

<g id="doubleArrow">
	<path fill="#414042" d="M45.53,30.991c0-0.004,0.002-0.008,0.002-0.011c0-0.136-0.056-0.267-0.154-0.361l-6.699-6.426
		c-0.199-0.191-0.516-0.185-0.707,0.016c-0.19,0.199-0.184,0.516,0.016,0.706l5.822,5.586H16.968c-0.276,0-0.5,0.224-0.5,0.5
		s0.224,0.5,0.5,0.5h26.84l-5.82,5.585c-0.2,0.19-0.206,0.507-0.015,0.706c0.098,0.103,0.229,0.154,0.36,0.154
		c0.125,0,0.249-0.046,0.346-0.14l6.699-6.427c0.046-0.043,0.079-0.104,0.105-0.17c0.029-0.064,0.049-0.134,0.049-0.209
		C45.532,30.997,45.53,30.994,45.53,30.991z"/>
	<path fill="#414042" d="M4.192,17.501h26.84c0.276,0,0.5-0.224,0.5-0.5s-0.224-0.5-0.5-0.5H4.19l5.823-5.586
		c0.199-0.19,0.206-0.507,0.016-0.706c-0.192-0.199-0.508-0.206-0.707-0.016l-6.699,6.426c-0.05,0.048-0.088,0.114-0.114,0.186
		c-0.026,0.06-0.04,0.126-0.04,0.196c0,0.003,0.002,0.006,0.002,0.009s-0.002,0.007-0.002,0.01c0,0.136,0.056,0.267,0.154,0.36
		l6.699,6.427c0.097,0.094,0.221,0.14,0.346,0.14c0.132,0,0.263-0.052,0.36-0.154c0.191-0.199,0.186-0.516-0.015-0.706L4.192,17.501
		z"/>
</g>

<g id="sun">
	<path fill="#414042" d="M45.876,23.453h-7.149c-0.085-2.286-0.68-4.442-1.692-6.35l6.183-3.568c0.262-0.151,0.351-0.484,0.2-0.746
		c-0.149-0.26-0.482-0.352-0.745-0.2l-6.192,3.574c-1.183-1.875-2.771-3.463-4.646-4.645l3.575-6.191
		c0.15-0.261,0.062-0.595-0.2-0.746c-0.263-0.153-0.595-0.06-0.745,0.2l-3.57,6.183c-1.907-1.014-4.064-1.608-6.351-1.692
		l0.002-7.147c0-0.301-0.244-0.545-0.546-0.546c-0.302,0-0.546,0.245-0.546,0.546l-0.002,7.148c-2.286,0.085-4.443,0.68-6.351,1.694
		l-3.566-6.185c-0.149-0.26-0.482-0.353-0.745-0.2c-0.262,0.15-0.351,0.484-0.2,0.745l3.572,6.195
		c-1.875,1.182-3.462,2.771-4.644,4.646l-6.19-3.578c-0.264-0.151-0.596-0.06-0.746,0.2c-0.15,0.261-0.062,0.595,0.199,0.746
		l6.182,3.573c-1.013,1.908-1.607,4.064-1.691,6.35l-7.147-0.004h0c-0.301,0-0.545,0.244-0.546,0.546
		c0,0.301,0.244,0.546,0.545,0.546l7.149,0.004c0.085,2.286,0.68,4.442,1.694,6.35l-6.185,3.565c-0.261,0.15-0.351,0.484-0.2,0.745
		c0.101,0.176,0.284,0.273,0.474,0.273c0.092,0,0.186-0.023,0.271-0.073l6.195-3.571c1.182,1.875,2.77,3.461,4.645,4.643l-3.58,6.19
		c-0.15,0.261-0.062,0.595,0.199,0.746c0.086,0.05,0.181,0.073,0.272,0.073c0.188,0,0.372-0.098,0.474-0.272l3.575-6.183
		c1.907,1.013,4.063,1.606,6.348,1.691l-0.004,7.149c0,0.301,0.244,0.546,0.546,0.546c0.301,0,0.546-0.244,0.546-0.546l0.004-7.149
		c2.286-0.085,4.442-0.68,6.35-1.693l3.565,6.184c0.101,0.176,0.284,0.273,0.474,0.273c0.092,0,0.186-0.023,0.271-0.073
		c0.262-0.15,0.351-0.484,0.2-0.745l-3.571-6.193c1.875-1.182,3.463-2.771,4.645-4.646l6.188,3.579
		c0.086,0.05,0.181,0.073,0.272,0.073c0.188,0,0.372-0.098,0.474-0.272c0.15-0.261,0.062-0.595-0.199-0.746l-6.181-3.574
		c1.013-1.906,1.606-4.062,1.691-6.347h7.149c0.302,0,0.546-0.244,0.546-0.546S46.178,23.453,45.876,23.453z M24.001,37.662
		c-7.535,0-13.665-6.129-13.665-13.663c0-7.534,6.13-13.663,13.665-13.663c7.533,0,13.661,6.129,13.661,13.663
		C37.662,31.533,31.534,37.662,24.001,37.662z"/>
</g>

<g id="waterDrop">
	<path fill="#414042" d="M35.675,19.147C29.858,11.14,24.483,2.612,24.43,2.527c-0.182-0.291-0.678-0.291-0.859,0
		c-0.054,0.085-5.429,8.613-11.245,16.621c-3.323,4.574-4.855,13.046-1.667,19.304c1.687,3.311,5.369,7.256,13.335,7.256h0.014
		c7.966,0,11.648-3.945,13.335-7.256C40.53,32.193,38.998,23.722,35.675,19.147z M36.45,37.997c-2.236,4.39-6.539,6.71-12.443,6.71
		h-0.014c-5.904,0-10.207-2.32-12.443-6.71c-3.015-5.916-1.563-13.931,1.584-18.262C18.036,12.986,22.624,5.872,24,3.715
		c1.376,2.157,5.964,9.271,10.866,16.021C38.013,24.066,39.465,32.081,36.45,37.997z"/>
	<path fill="#414042" d="M26.207,13.435c-0.091-0.146-0.259-0.234-0.431-0.234c-0.276,0-0.496,0.224-0.496,0.5
		c0,0.115,0.039,0.22,0.104,0.305c0.303,0.479,3.384,5.334,6.708,9.909c1.547,2.129,2.233,5.472,1.709,8.318
		c-0.281,1.525-1.047,3.625-3.098,4.961c-0.231,0.151-0.296,0.461-0.146,0.692c0.096,0.147,0.256,0.228,0.419,0.228
		c0.094,0,0.188-0.027,0.273-0.082c1.857-1.211,3.08-3.153,3.534-5.617c0.571-3.099-0.186-6.75-1.884-9.087
		C29.438,18.561,26.239,13.485,26.207,13.435z"/>
</g>

<g id="sensor">
	<path fill="#414042" d="M38.292,10.718C34.47,6.902,29.394,4.801,24,4.801c-5.395,0-10.47,2.102-14.291,5.917
		c-0.195,0.195-0.195,0.512,0,0.708c0.195,0.195,0.512,0.195,0.707,0C14.048,7.798,18.873,5.801,24,5.801s9.952,1.998,13.585,5.625
		c0.098,0.097,0.226,0.146,0.354,0.146s0.256-0.049,0.354-0.147C38.487,11.23,38.487,10.914,38.292,10.718z"/>
	<path fill="#414042" d="M24,11.369c-3.643,0-7.067,1.419-9.645,3.996c-0.195,0.195-0.195,0.512,0,0.707s0.512,0.195,0.707,0
		c2.388-2.388,5.563-3.703,8.938-3.703c3.376,0,6.55,1.315,8.937,3.703c0.098,0.098,0.226,0.146,0.354,0.146
		s0.256-0.049,0.354-0.146c0.195-0.195,0.195-0.512,0-0.707C31.067,12.788,27.643,11.369,24,11.369z"/>
	<path fill="#414042" d="M26.338,30.563h-4.676c-0.276,0-0.5,0.224-0.5,0.5s0.224,0.5,0.5,0.5h4.676c0.276,0,0.5-0.224,0.5-0.5
		S26.614,30.563,26.338,30.563z"/>
	<path fill="#414042" d="M29.757,21.162H18.07c-0.921,0-1.67,0.748-1.67,1.668v15.193c0,2.854,2.322,5.176,5.176,5.176h4.675
		c2.854,0,5.175-2.322,5.175-5.176V22.83C31.426,21.91,30.677,21.162,29.757,21.162z M30.426,38.023
		c0,2.303-1.873,4.176-4.175,4.176h-4.675c-2.303,0-4.176-1.873-4.176-4.176V22.83c0-0.368,0.301-0.668,0.67-0.668h11.687
		c0.369,0,0.669,0.3,0.669,0.668V38.023z"/>
	<path fill="#414042" d="M26.424,25.838H21.75c-0.276,0-0.5,0.224-0.5,0.5s0.224,0.5,0.5,0.5h4.674c0.276,0,0.5-0.224,0.5-0.5
		S26.7,25.838,26.424,25.838z"/>
</g>

<g id="clock">
	<path fill="#414042" d="M16.704,10.936h14.282c0.277,0,0.5-0.224,0.5-0.5c0-3.106-3.426-5.633-7.64-5.633s-7.642,2.527-7.642,5.633
		C16.204,10.712,16.428,10.936,16.704,10.936z M23.845,5.803c3.42,0,6.245,1.813,6.603,4.133H17.242
		C17.601,7.615,20.425,5.803,23.845,5.803z"/>
	<path fill="#414042" d="M24.5,26.841v-7.88c0-0.276-0.224-0.5-0.5-0.5s-0.5,0.224-0.5,0.5v8.122c0,0.011,0.005,0.02,0.006,0.03
		c0.002,0.033,0.011,0.064,0.019,0.096c0.009,0.032,0.015,0.063,0.029,0.092c0.013,0.026,0.032,0.05,0.05,0.074
		c0.021,0.028,0.041,0.056,0.066,0.078c0.008,0.007,0.012,0.017,0.02,0.023l4.559,3.59c0.092,0.072,0.202,0.107,0.311,0.107
		c0.146,0,0.293-0.066,0.393-0.189c0.17-0.219,0.133-0.532-0.084-0.702L24.5,26.841z"/>
	<path fill="#414042" d="M33.087,39.184c3.677-2.768,6.069-7.154,6.069-12.101c0-8.359-6.799-15.158-15.156-15.158
		c-8.358,0-15.157,6.8-15.157,15.158c0,4.946,2.394,9.334,6.071,12.102l-2.056,3.378c-0.144,0.236-0.069,0.543,0.167,0.688
		c0.081,0.049,0.171,0.072,0.259,0.072c0.169,0,0.334-0.086,0.428-0.24l2.018-3.314c2.381,1.557,5.219,2.471,8.27,2.471
		c3.051,0,5.889-0.914,8.27-2.471l2.02,3.315c0.094,0.153,0.259,0.239,0.428,0.239c0.088,0,0.178-0.023,0.26-0.072
		c0.236-0.145,0.312-0.453,0.168-0.688L33.087,39.184z M9.843,27.083c0-7.807,6.351-14.158,14.157-14.158
		c7.807,0,14.156,6.351,14.156,14.158c0,7.806-6.35,14.155-14.156,14.155C16.194,41.238,9.843,34.889,9.843,27.083z"/>
</g>

<g id="refresh">
	<path fill="#414042" d="M44.286,35.399l-2.791-6.742c-0.056-0.135-0.168-0.238-0.307-0.284c-0.14-0.046-0.291-0.027-0.415,0.049
		l-6.654,4.053c-0.236,0.144-0.311,0.451-0.167,0.687c0.144,0.236,0.452,0.311,0.687,0.167l5.457-3.323
		c-0.441,2.123-2.435,4.689-2.457,4.717c-3.424,4.331-8.566,6.814-14.107,6.814c-7.961,0-15.05-5.3-17.239-12.891
		c-0.076-0.261-0.164-0.61-0.172-0.72c-0.021-0.277-0.291-0.484-0.537-0.461c-0.275,0.021-0.481,0.262-0.461,0.537
		c0.021,0.263,0.166,0.774,0.21,0.923c2.312,8.014,9.795,13.611,18.199,13.611c5.849,0,11.277-2.622,14.894-7.195
		c0.097-0.124,2.133-2.74,2.644-5.102l2.294,5.543c0.08,0.192,0.266,0.309,0.462,0.309c0.063,0,0.129-0.012,0.191-0.038
		C44.271,35.947,44.392,35.654,44.286,35.399z"/>
	<path fill="#414042" d="M5.658,18.817c0.016,0.047,0.041,0.087,0.068,0.126c0.012,0.017,0.019,0.036,0.032,0.051
		c0.046,0.051,0.101,0.094,0.165,0.123c0.001,0,0.001,0.001,0.002,0.001c0.014,0.006,0.03,0.004,0.044,0.009
		c0.046,0.016,0.093,0.032,0.145,0.034c0.003,0,0.005-0.001,0.008-0.001c0.002,0,0.004,0.001,0.007,0.001
		c0.017,0,0.033-0.01,0.05-0.012c0.053-0.006,0.104-0.014,0.151-0.035c0.006-0.003,0.013-0.001,0.019-0.004l7.434-3.646
		c0.248-0.122,0.351-0.422,0.229-0.669c-0.122-0.25-0.424-0.35-0.669-0.229l-6.582,3.229c0.52-2.08,2.394-4.488,2.415-4.514
		c3.427-4.332,8.569-6.816,14.107-6.816c7.961,0,15.05,5.301,17.239,12.894c0.076,0.26,0.165,0.609,0.175,0.721
		c0.021,0.261,0.24,0.458,0.497,0.458c0.015,0,0.029-0.001,0.043-0.002c0.275-0.023,0.479-0.265,0.456-0.54
		c-0.022-0.268-0.181-0.813-0.211-0.917c-2.312-8.016-9.796-13.613-18.199-13.613c-5.846,0-11.274,2.623-14.894,7.197
		c-0.082,0.104-1.546,1.984-2.309,3.988L4.657,11.6c-0.075-0.266-0.351-0.42-0.617-0.346c-0.266,0.075-0.421,0.352-0.346,0.617
		l1.953,6.926C5.649,18.804,5.656,18.81,5.658,18.817z"/>
</g>

<g id="serverRack">
	<path fill="#414042" d="M6.5,5.874h35c0.276,0,0.5-0.224,0.5-0.5s-0.224-0.5-0.5-0.5h-35c-0.276,0-0.5,0.224-0.5,0.5
		S6.224,5.874,6.5,5.874z"/>
	<path fill="#414042" d="M9.916,37.343h-0.25c-0.276,0-0.5,0.224-0.5,0.5v0.25c0,0.276,0.224,0.5,0.5,0.5h0.25
		c0.276,0,0.5-0.224,0.5-0.5v-0.25C10.416,37.566,10.192,37.343,9.916,37.343z"/>
	<path fill="#414042" d="M13.791,37.343h-0.25c-0.276,0-0.5,0.224-0.5,0.5v0.25c0,0.276,0.224,0.5,0.5,0.5h0.25
		c0.276,0,0.5-0.224,0.5-0.5v-0.25C14.291,37.566,14.067,37.343,13.791,37.343z"/>
	<path fill="#414042" d="M37.916,37.343h-0.25c-0.276,0-0.5,0.224-0.5,0.5v0.25c0,0.276,0.224,0.5,0.5,0.5h0.25
		c0.276,0,0.5-0.224,0.5-0.5v-0.25C38.416,37.566,38.192,37.343,37.916,37.343z"/>
	<path fill="#414042" d="M27.791,37.343h-0.25c-0.276,0-0.5,0.224-0.5,0.5v0.25c0,0.276,0.224,0.5,0.5,0.5h0.25
		c0.276,0,0.5-0.224,0.5-0.5v-0.25C28.291,37.566,28.067,37.343,27.791,37.343z"/>
	<path fill="#414042" d="M23.791,37.343h-0.25c-0.276,0-0.5,0.224-0.5,0.5v0.25c0,0.276,0.224,0.5,0.5,0.5h0.25
		c0.276,0,0.5-0.224,0.5-0.5v-0.25C24.291,37.566,24.067,37.343,23.791,37.343z"/>
	<path fill="#414042" d="M13.75,25.593H13.5c-0.276,0-0.5,0.224-0.5,0.5v0.25c0,0.276,0.224,0.5,0.5,0.5h0.25
		c0.276,0,0.5-0.224,0.5-0.5v-0.25C14.25,25.816,14.026,25.593,13.75,25.593z"/>
	<path fill="#414042" d="M9.875,25.593h-0.25c-0.276,0-0.5,0.224-0.5,0.5v0.25c0,0.276,0.224,0.5,0.5,0.5h0.25
		c0.276,0,0.5-0.224,0.5-0.5v-0.25C10.375,25.816,10.151,25.593,9.875,25.593z"/>
	<path fill="#414042" d="M23.75,25.593H23.5c-0.276,0-0.5,0.224-0.5,0.5v0.25c0,0.276,0.224,0.5,0.5,0.5h0.25
		c0.276,0,0.5-0.224,0.5-0.5v-0.25C24.25,25.816,24.026,25.593,23.75,25.593z"/>
	<path fill="#414042" d="M27.75,25.593H27.5c-0.276,0-0.5,0.224-0.5,0.5v0.25c0,0.276,0.224,0.5,0.5,0.5h0.25
		c0.276,0,0.5-0.224,0.5-0.5v-0.25C28.25,25.816,28.026,25.593,27.75,25.593z"/>
	<path fill="#414042" d="M37.875,25.593h-0.25c-0.276,0-0.5,0.224-0.5,0.5v0.25c0,0.276,0.224,0.5,0.5,0.5h0.25
		c0.276,0,0.5-0.224,0.5-0.5v-0.25C38.375,25.816,38.151,25.593,37.875,25.593z"/>
	<path fill="#414042" d="M27.875,13.718h-0.25c-0.276,0-0.5,0.224-0.5,0.5v0.25c0,0.276,0.224,0.5,0.5,0.5h0.25
		c0.276,0,0.5-0.224,0.5-0.5v-0.25C28.375,13.941,28.151,13.718,27.875,13.718z"/>
	<path fill="#414042" d="M38,13.718h-0.25c-0.276,0-0.5,0.224-0.5,0.5v0.25c0,0.276,0.224,0.5,0.5,0.5H38c0.276,0,0.5-0.224,0.5-0.5
		v-0.25C38.5,13.941,38.276,13.718,38,13.718z"/>
	<path fill="#414042" d="M23.875,13.718h-0.25c-0.276,0-0.5,0.224-0.5,0.5v0.25c0,0.276,0.224,0.5,0.5,0.5h0.25
		c0.276,0,0.5-0.224,0.5-0.5v-0.25C24.375,13.941,24.151,13.718,23.875,13.718z"/>
	<path fill="#414042" d="M10,13.718H9.75c-0.276,0-0.5,0.224-0.5,0.5v0.25c0,0.276,0.224,0.5,0.5,0.5H10c0.276,0,0.5-0.224,0.5-0.5
		v-0.25C10.5,13.941,10.276,13.718,10,13.718z"/>
	<path fill="#414042" d="M13.875,13.718h-0.25c-0.276,0-0.5,0.224-0.5,0.5v0.25c0,0.276,0.224,0.5,0.5,0.5h0.25
		c0.276,0,0.5-0.224,0.5-0.5v-0.25C14.375,13.941,14.151,13.718,13.875,13.718z"/>
	<path fill="#414042" d="M41.5,8.208c-0.276,0-0.5,0.224-0.5,0.5v2.354H7V8.708c0-0.276-0.224-0.5-0.5-0.5S6,8.432,6,8.708v2.854
		v3.064v2.498c0,0.276,0.224,0.5,0.5,0.5h35c0.276,0,0.5-0.224,0.5-0.5v-2.498v-3.064V8.708C42,8.432,41.776,8.208,41.5,8.208z
		 M41,16.624H7v-1.998v-2.564h34v2.564V16.624z"/>
	<path fill="#414042" d="M41.5,20.208c-0.276,0-0.5,0.224-0.5,0.5v2.104H7v-2.104c0-0.276-0.224-0.5-0.5-0.5S6,20.432,6,20.708
		v2.604v3.314v2.248c0,0.276,0.224,0.5,0.5,0.5h35c0.276,0,0.5-0.224,0.5-0.5v-2.248v-3.314v-2.604
		C42,20.432,41.776,20.208,41.5,20.208z M41,28.374H7v-1.748v-2.814h34v2.814V28.374z"/>
	<path fill="#414042" d="M41.5,32.208c-0.276,0-0.5,0.224-0.5,0.5v1.854H7v-1.854c0-0.276-0.224-0.5-0.5-0.5S6,32.432,6,32.708
		v2.354v5.563v2.002c0,0.276,0.224,0.5,0.5,0.5s0.5-0.224,0.5-0.5v-1.502h34v1.502c0,0.276,0.224,0.5,0.5,0.5s0.5-0.224,0.5-0.5
		v-2.002v-5.563v-2.354C42,32.432,41.776,32.208,41.5,32.208z M7,40.124v-4.563h34v4.563H7z"/>
</g>
<g id="sdcard">
	<path fill="#414042" d="M16.691,19.846c0.276,0,0.5-0.224,0.5-0.5v-9.309c0-0.276-0.224-0.5-0.5-0.5s-0.5,0.224-0.5,0.5v9.309
		C16.191,19.622,16.415,19.846,16.691,19.846z"/>
	<path fill="#414042" d="M26,19.846c0.276,0,0.5-0.224,0.5-0.5v-9.309c0-0.276-0.224-0.5-0.5-0.5s-0.5,0.224-0.5,0.5v9.309
		C25.5,19.622,25.724,19.846,26,19.846z"/>
	<path fill="#414042" d="M21.346,19.846c0.276,0,0.5-0.224,0.5-0.5v-9.309c0-0.276-0.224-0.5-0.5-0.5s-0.5,0.224-0.5,0.5v9.309
		C20.846,19.622,21.069,19.846,21.346,19.846z"/>
	<path fill="#414042" d="M30.524,30.908H16.146c-0.276,0-0.5,0.224-0.5,0.5v4.443c0,0.276,0.224,0.5,0.5,0.5h14.379
		c0.276,0,0.5-0.224,0.5-0.5v-4.443C31.024,31.132,30.801,30.908,30.524,30.908z M30.024,35.352H16.646v-3.443h13.379V35.352z"/>
	<path fill="#414042" d="M38.316,14.338l-9.309-9.309c-0.094-0.094-0.221-0.146-0.354-0.146H10.037c-0.276,0-0.5,0.224-0.5,0.5
		v16.289c0,0.276,0.224,0.5,0.5,0.5h1.827v5.982h-1.827c-0.276,0-0.5,0.224-0.5,0.5v13.963c0,0.276,0.224,0.5,0.5,0.5h27.926
		c0.276,0,0.5-0.224,0.5-0.5V14.691C38.463,14.559,38.41,14.432,38.316,14.338z M37.463,42.117H10.537V29.154h1.827
		c0.276,0,0.5-0.224,0.5-0.5v-6.982c0-0.276-0.224-0.5-0.5-0.5h-1.827V5.883h17.91l9.016,9.016V42.117z"/>
	<path fill="#414042" d="M30.654,19.846c0.276,0,0.5-0.224,0.5-0.5v-4.654c0-0.276-0.224-0.5-0.5-0.5s-0.5,0.224-0.5,0.5v4.654
		C30.154,19.622,30.378,19.846,30.654,19.846z"/>
</g>
<g id="computer">
	<path fill="#414042" d="M42.419,7.231H11.894c-0.912,0-1.654,0.742-1.654,1.654v2.283H4.786c-0.505,0-0.857,0.537-0.857,1.305
		v26.988c0,0.77,0.353,1.307,0.857,1.307h11.908c0.504,0,0.855-0.537,0.855-1.307V12.474c0-0.768-0.352-1.305-0.855-1.305h-5.455
		V8.886c0-0.361,0.294-0.654,0.654-0.654h30.525c0.36,0,0.654,0.293,0.654,0.654v19.732c0,0.36-0.294,0.654-0.654,0.654H18.366
		c-0.276,0-0.5,0.224-0.5,0.5s0.224,0.5,0.5,0.5h24.053c0.912,0,1.654-0.742,1.654-1.654V8.886
		C44.073,7.974,43.331,7.231,42.419,7.231z M16.511,39.769H4.968c-0.02-0.067-0.039-0.169-0.039-0.307V28.886H16.55v10.576
		C16.55,39.6,16.53,39.701,16.511,39.769z M16.55,12.474v15.412H4.929V12.474c0-0.137,0.02-0.238,0.039-0.305h11.544
		C16.53,12.235,16.55,12.337,16.55,12.474z"/>
	<path fill="#414042" d="M31.337,33.376c0.276,0,0.5-0.224,0.5-0.5s-0.224-0.5-0.5-0.5h-8.363c-0.276,0-0.5,0.224-0.5,0.5
		s0.224,0.5,0.5,0.5H31.337z"/>
	<path fill="#414042" d="M39.755,35.415H18.366c-0.276,0-0.5,0.224-0.5,0.5s0.224,0.5,0.5,0.5h21.389c0.276,0,0.5-0.224,0.5-0.5
		S40.031,35.415,39.755,35.415z"/>
	<path fill="#414042" d="M10.741,30.265c-1.442,0-2.615,1.174-2.615,2.617c0,1.44,1.173,2.613,2.615,2.613
		c1.441,0,2.613-1.173,2.613-2.613C13.354,31.438,12.183,30.265,10.741,30.265z M10.741,34.495c-0.891,0-1.615-0.724-1.615-1.613
		c0-0.892,0.725-1.617,1.615-1.617c0.89,0,1.613,0.726,1.613,1.617C12.354,33.771,11.631,34.495,10.741,34.495z"/>
	<path fill="#414042" d="M12.427,37.015H9.054c-0.276,0-0.5,0.224-0.5,0.5s0.224,0.5,0.5,0.5h3.373c0.276,0,0.5-0.224,0.5-0.5
		S12.703,37.015,12.427,37.015z"/>
	<path fill="#414042" d="M6.313,18.04v1.074c0,0.721,0.586,1.307,1.307,1.307h6.242c0.721,0,1.307-0.586,1.307-1.307V18.04
		c0-0.719-0.586-1.305-1.307-1.305H7.62C6.899,16.735,6.313,17.321,6.313,18.04z M14.169,18.04v1.074
		c0,0.169-0.138,0.307-0.307,0.307H7.62c-0.169,0-0.307-0.138-0.307-0.307V18.04c0-0.168,0.138-0.305,0.307-0.305h6.242
		C14.031,17.735,14.169,17.872,14.169,18.04z"/>
</g>
<g id="thermometer">
	<path d="M236.896,38.375v12.854h-49.808V38.375H236.896z M216.009,66.389h-28.921v12.854h28.921V66.389z M187.088,107.257h49.808
		V94.404h-49.808V107.257z M216.009,122.425h-28.921v12.854h28.921V122.425z M187.088,163.293h49.808v-12.854h-49.808V163.293z
		 M194.852,236.533c0,35.881-29.191,65.072-65.072,65.072s-65.072-29.191-65.072-65.072c0-23.252,12.211-44.384,32.134-56.074
		V32.938C96.843,14.775,111.618,0,129.78,0s32.938,14.775,32.938,32.938v147.522C182.641,192.137,194.852,213.275,194.852,236.533z
		 M181.998,236.533c0-19.73-10.964-37.565-28.619-46.53l-3.515-1.787V32.944c0-11.08-9.01-20.084-20.084-20.084
		c-11.073,0-20.084,9.004-20.084,20.084v155.272l-3.515,1.787c-17.655,8.972-28.619,26.806-28.619,46.53
		c0,28.792,23.426,52.218,52.218,52.218S181.998,265.325,181.998,236.533z M171.291,236.533c0,22.886-18.619,41.505-41.511,41.505
		c-22.886,0-41.505-18.619-41.505-41.505c0-18.76,12.674-35.232,30.823-40.058l2.384-0.636v-79.275h16.601v79.269l2.384,0.643
		C158.624,201.301,171.291,217.78,171.291,236.533z M131.837,208.866c-0.99-4.396-5.411-7.288-9.917-6.26
		c-15.733,3.56-26.723,17.32-26.723,33.465c0,4.569,3.721,8.291,8.291,8.291s8.291-3.721,8.291-8.291
		c0-8.207,5.797-15.482,13.798-17.288C130.024,217.76,132.839,213.313,131.837,208.866z"/>
</g>

<!--Paste your icons above-->

</svg>