<?xml version="1.0" encoding="utf-8"?>
<!-- Generator: Adobe Illustrator 16.0.0, SVG Export Plug-In . SVG Version: 6.00 Build 0)  -->
<!DOCTYPE svg PUBLIC "-//W3C//DTD SVG 1.1//EN" "http://www.w3.org/Graphics/SVG/1.1/DTD/svg11.dtd">
<svg version="1.1" id="Layer_1" xmlns="http://www.w3.org/2000/svg" xmlns:xlink="http://www.w3.org/1999/xlink" x="0px" y="0px"
	 width="48px" height="48px" viewBox="0 0 48 48" enable-background="new 0 0 48 48" xml:space="preserve">
<g>
	<path fill="#414042" d="M32.461,34.322h-19.35c-0.276,0-0.5,0.225-0.5,0.5c0,0.277,0.224,0.5,0.5,0.5h19.35
		c0.276,0,0.5-0.223,0.5-0.5C32.961,34.547,32.737,34.322,32.461,34.322z"/>
	<path fill="#414042" d="M32.461,26.322h-19.35c-0.276,0-0.5,0.225-0.5,0.5c0,0.277,0.224,0.5,0.5,0.5h19.35
		c0.276,0,0.5-0.223,0.5-0.5C32.961,26.547,32.737,26.322,32.461,26.322z"/>
	<path fill="#414042" d="M32.461,18.639h-19.35c-0.276,0-0.5,0.224-0.5,0.5s0.224,0.5,0.5,0.5h19.35c0.276,0,0.5-0.224,0.5-0.5
		S32.737,18.639,32.461,18.639z"/>
	<path fill="#414042" d="M42.639,11.551c-0.002-0.003-0.005-0.006-0.007-0.01c-0.027-0.058-0.064-0.109-0.11-0.152
		c-0.002-0.002-0.003-0.005-0.005-0.007c-0.006-0.005-0.12-0.104-0.126-0.108l-8.271-8.27l-0.013,0.012
		c-0.019-0.041-0.046-0.077-0.074-0.111L34.036,2.9c-0.004-0.004-0.01-0.006-0.015-0.011c-0.034-0.038-0.076-0.066-0.121-0.092
		c-0.015-0.008-0.026-0.021-0.042-0.028c-0.062-0.027-0.13-0.044-0.202-0.044H7.855c-2.003,0-2.532,1.741-2.532,2.662l0.002,37.048
		c-0.005,0.05-0.107,1.226,0.65,2.059c0.471,0.518,1.147,0.781,2.01,0.781h31.643c0.005,0,0.011,0,0.016-0.001
		c1.051-0.034,3.037-0.706,3.037-3.007V11.753c0,0,0,0,0,0c0-0.001,0-0.001,0-0.001C42.682,11.68,42.666,11.612,42.639,11.551z
		 M34.156,4.454l6.798,6.798h-6.798V4.454z M41.682,42.268c0,1.851-1.818,1.996-2.063,2.008H7.986c-0.566,0-0.992-0.151-1.266-0.449
		c-0.46-0.502-0.399-1.291-0.397-1.344V5.39c0.001-0.17,0.058-1.665,1.532-1.665h25.301v8.026c0,0.276,0.224,0.5,0.5,0.5h8.025
		V42.268z"/>
</g>
</svg>
