<?xml version='1.0' encoding='utf8'?>
<svg xmlns="http://www.w3.org/2000/svg" enable-background="new 0 0 48 48" version="1.1" viewBox="0 0 48 48" x="0px" xml:space="preserve" xmlns:xlink="http://www.w3.org/1999/xlink" y="0px">

<!--Paste your icons below-->
<g id="clock">
	<path fill="#414042" d="M16.704,10.936h14.282c0.277,0,0.5-0.224,0.5-0.5c0-3.106-3.426-5.633-7.64-5.633s-7.642,2.527-7.642,5.633
		C16.204,10.712,16.428,10.936,16.704,10.936z M23.845,5.803c3.42,0,6.245,1.813,6.603,4.133H17.242
		C17.601,7.615,20.425,5.803,23.845,5.803z"/>
	<path fill="#414042" d="M24.5,26.841v-7.88c0-0.276-0.224-0.5-0.5-0.5s-0.5,0.224-0.5,0.5v8.122c0,0.011,0.005,0.02,0.006,0.03
		c0.002,0.033,0.011,0.064,0.019,0.096c0.009,0.032,0.015,0.063,0.029,0.092c0.013,0.026,0.032,0.05,0.05,0.074
		c0.021,0.028,0.041,0.056,0.066,0.078c0.008,0.007,0.012,0.017,0.02,0.023l4.559,3.59c0.092,0.072,0.202,0.107,0.311,0.107
		c0.146,0,0.293-0.066,0.393-0.189c0.17-0.219,0.133-0.532-0.084-0.702L24.5,26.841z"/>
	<path fill="#414042" d="M33.087,39.184c3.677-2.768,6.069-7.154,6.069-12.101c0-8.359-6.799-15.158-15.156-15.158
		c-8.358,0-15.157,6.8-15.157,15.158c0,4.946,2.394,9.334,6.071,12.102l-2.056,3.378c-0.144,0.236-0.069,0.543,0.167,0.688
		c0.081,0.049,0.171,0.072,0.259,0.072c0.169,0,0.334-0.086,0.428-0.24l2.018-3.314c2.381,1.557,5.219,2.471,8.27,2.471
		c3.051,0,5.889-0.914,8.27-2.471l2.02,3.315c0.094,0.153,0.259,0.239,0.428,0.239c0.088,0,0.178-0.023,0.26-0.072
		c0.236-0.145,0.312-0.453,0.168-0.688L33.087,39.184z M9.843,27.083c0-7.807,6.351-14.158,14.157-14.158
		c7.807,0,14.156,6.351,14.156,14.158c0,7.806-6.35,14.155-14.156,14.155C16.194,41.238,9.843,34.889,9.843,27.083z"/>
</g>

<g id="arrowLoop">
	<path fill="#414042" d="M44.286,35.399l-2.791-6.742c-0.056-0.135-0.168-0.238-0.307-0.284c-0.14-0.046-0.291-0.027-0.415,0.049
		l-6.654,4.053c-0.236,0.144-0.311,0.451-0.167,0.687c0.144,0.236,0.452,0.311,0.687,0.167l5.457-3.323
		c-0.441,2.123-2.435,4.689-2.457,4.717c-3.424,4.331-8.566,6.814-14.107,6.814c-7.961,0-15.05-5.3-17.239-12.891
		c-0.076-0.261-0.164-0.61-0.172-0.72c-0.021-0.277-0.291-0.484-0.537-0.461c-0.275,0.021-0.481,0.262-0.461,0.537
		c0.021,0.263,0.166,0.774,0.21,0.923c2.312,8.014,9.795,13.611,18.199,13.611c5.849,0,11.277-2.622,14.894-7.195
		c0.097-0.124,2.133-2.74,2.644-5.102l2.294,5.543c0.08,0.192,0.266,0.309,0.462,0.309c0.063,0,0.129-0.012,0.191-0.038
		C44.271,35.947,44.392,35.654,44.286,35.399z"/>
	<path fill="#414042" d="M5.658,18.817c0.016,0.047,0.041,0.087,0.068,0.126c0.012,0.017,0.019,0.036,0.032,0.051
		c0.046,0.051,0.101,0.094,0.165,0.123c0.001,0,0.001,0.001,0.002,0.001c0.014,0.006,0.03,0.004,0.044,0.009
		c0.046,0.016,0.093,0.032,0.145,0.034c0.003,0,0.005-0.001,0.008-0.001c0.002,0,0.004,0.001,0.007,0.001
		c0.017,0,0.033-0.01,0.05-0.012c0.053-0.006,0.104-0.014,0.151-0.035c0.006-0.003,0.013-0.001,0.019-0.004l7.434-3.646
		c0.248-0.122,0.351-0.422,0.229-0.669c-0.122-0.25-0.424-0.35-0.669-0.229l-6.582,3.229c0.52-2.08,2.394-4.488,2.415-4.514
		c3.427-4.332,8.569-6.816,14.107-6.816c7.961,0,15.05,5.301,17.239,12.894c0.076,0.26,0.165,0.609,0.175,0.721
		c0.021,0.261,0.24,0.458,0.497,0.458c0.015,0,0.029-0.001,0.043-0.002c0.275-0.023,0.479-0.265,0.456-0.54
		c-0.022-0.268-0.181-0.813-0.211-0.917c-2.312-8.016-9.796-13.613-18.199-13.613c-5.846,0-11.274,2.623-14.894,7.197
		c-0.082,0.104-1.546,1.984-2.309,3.988L4.657,11.6c-0.075-0.266-0.351-0.42-0.617-0.346c-0.266,0.075-0.421,0.352-0.346,0.617
		l1.953,6.926C5.649,18.804,5.656,18.81,5.658,18.817z"/>
</g>

<g id="serverRack">
	<path fill="#414042" d="M6.5,5.874h35c0.276,0,0.5-0.224,0.5-0.5s-0.224-0.5-0.5-0.5h-35c-0.276,0-0.5,0.224-0.5,0.5
		S6.224,5.874,6.5,5.874z"/>
	<path fill="#414042" d="M9.916,37.343h-0.25c-0.276,0-0.5,0.224-0.5,0.5v0.25c0,0.276,0.224,0.5,0.5,0.5h0.25
		c0.276,0,0.5-0.224,0.5-0.5v-0.25C10.416,37.566,10.192,37.343,9.916,37.343z"/>
	<path fill="#414042" d="M13.791,37.343h-0.25c-0.276,0-0.5,0.224-0.5,0.5v0.25c0,0.276,0.224,0.5,0.5,0.5h0.25
		c0.276,0,0.5-0.224,0.5-0.5v-0.25C14.291,37.566,14.067,37.343,13.791,37.343z"/>
	<path fill="#414042" d="M37.916,37.343h-0.25c-0.276,0-0.5,0.224-0.5,0.5v0.25c0,0.276,0.224,0.5,0.5,0.5h0.25
		c0.276,0,0.5-0.224,0.5-0.5v-0.25C38.416,37.566,38.192,37.343,37.916,37.343z"/>
	<path fill="#414042" d="M27.791,37.343h-0.25c-0.276,0-0.5,0.224-0.5,0.5v0.25c0,0.276,0.224,0.5,0.5,0.5h0.25
		c0.276,0,0.5-0.224,0.5-0.5v-0.25C28.291,37.566,28.067,37.343,27.791,37.343z"/>
	<path fill="#414042" d="M23.791,37.343h-0.25c-0.276,0-0.5,0.224-0.5,0.5v0.25c0,0.276,0.224,0.5,0.5,0.5h0.25
		c0.276,0,0.5-0.224,0.5-0.5v-0.25C24.291,37.566,24.067,37.343,23.791,37.343z"/>
	<path fill="#414042" d="M13.75,25.593H13.5c-0.276,0-0.5,0.224-0.5,0.5v0.25c0,0.276,0.224,0.5,0.5,0.5h0.25
		c0.276,0,0.5-0.224,0.5-0.5v-0.25C14.25,25.816,14.026,25.593,13.75,25.593z"/>
	<path fill="#414042" d="M9.875,25.593h-0.25c-0.276,0-0.5,0.224-0.5,0.5v0.25c0,0.276,0.224,0.5,0.5,0.5h0.25
		c0.276,0,0.5-0.224,0.5-0.5v-0.25C10.375,25.816,10.151,25.593,9.875,25.593z"/>
	<path fill="#414042" d="M23.75,25.593H23.5c-0.276,0-0.5,0.224-0.5,0.5v0.25c0,0.276,0.224,0.5,0.5,0.5h0.25
		c0.276,0,0.5-0.224,0.5-0.5v-0.25C24.25,25.816,24.026,25.593,23.75,25.593z"/>
	<path fill="#414042" d="M27.75,25.593H27.5c-0.276,0-0.5,0.224-0.5,0.5v0.25c0,0.276,0.224,0.5,0.5,0.5h0.25
		c0.276,0,0.5-0.224,0.5-0.5v-0.25C28.25,25.816,28.026,25.593,27.75,25.593z"/>
	<path fill="#414042" d="M37.875,25.593h-0.25c-0.276,0-0.5,0.224-0.5,0.5v0.25c0,0.276,0.224,0.5,0.5,0.5h0.25
		c0.276,0,0.5-0.224,0.5-0.5v-0.25C38.375,25.816,38.151,25.593,37.875,25.593z"/>
	<path fill="#414042" d="M27.875,13.718h-0.25c-0.276,0-0.5,0.224-0.5,0.5v0.25c0,0.276,0.224,0.5,0.5,0.5h0.25
		c0.276,0,0.5-0.224,0.5-0.5v-0.25C28.375,13.941,28.151,13.718,27.875,13.718z"/>
	<path fill="#414042" d="M38,13.718h-0.25c-0.276,0-0.5,0.224-0.5,0.5v0.25c0,0.276,0.224,0.5,0.5,0.5H38c0.276,0,0.5-0.224,0.5-0.5
		v-0.25C38.5,13.941,38.276,13.718,38,13.718z"/>
	<path fill="#414042" d="M23.875,13.718h-0.25c-0.276,0-0.5,0.224-0.5,0.5v0.25c0,0.276,0.224,0.5,0.5,0.5h0.25
		c0.276,0,0.5-0.224,0.5-0.5v-0.25C24.375,13.941,24.151,13.718,23.875,13.718z"/>
	<path fill="#414042" d="M10,13.718H9.75c-0.276,0-0.5,0.224-0.5,0.5v0.25c0,0.276,0.224,0.5,0.5,0.5H10c0.276,0,0.5-0.224,0.5-0.5
		v-0.25C10.5,13.941,10.276,13.718,10,13.718z"/>
	<path fill="#414042" d="M13.875,13.718h-0.25c-0.276,0-0.5,0.224-0.5,0.5v0.25c0,0.276,0.224,0.5,0.5,0.5h0.25
		c0.276,0,0.5-0.224,0.5-0.5v-0.25C14.375,13.941,14.151,13.718,13.875,13.718z"/>
	<path fill="#414042" d="M41.5,8.208c-0.276,0-0.5,0.224-0.5,0.5v2.354H7V8.708c0-0.276-0.224-0.5-0.5-0.5S6,8.432,6,8.708v2.854
		v3.064v2.498c0,0.276,0.224,0.5,0.5,0.5h35c0.276,0,0.5-0.224,0.5-0.5v-2.498v-3.064V8.708C42,8.432,41.776,8.208,41.5,8.208z
		 M41,16.624H7v-1.998v-2.564h34v2.564V16.624z"/>
	<path fill="#414042" d="M41.5,20.208c-0.276,0-0.5,0.224-0.5,0.5v2.104H7v-2.104c0-0.276-0.224-0.5-0.5-0.5S6,20.432,6,20.708
		v2.604v3.314v2.248c0,0.276,0.224,0.5,0.5,0.5h35c0.276,0,0.5-0.224,0.5-0.5v-2.248v-3.314v-2.604
		C42,20.432,41.776,20.208,41.5,20.208z M41,28.374H7v-1.748v-2.814h34v2.814V28.374z"/>
	<path fill="#414042" d="M41.5,32.208c-0.276,0-0.5,0.224-0.5,0.5v1.854H7v-1.854c0-0.276-0.224-0.5-0.5-0.5S6,32.432,6,32.708
		v2.354v5.563v2.002c0,0.276,0.224,0.5,0.5,0.5s0.5-0.224,0.5-0.5v-1.502h34v1.502c0,0.276,0.224,0.5,0.5,0.5s0.5-0.224,0.5-0.5
		v-2.002v-5.563v-2.354C42,32.432,41.776,32.208,41.5,32.208z M7,40.124v-4.563h34v4.563H7z"/>
</g>
<g id="sdcard">
	<path fill="#414042" d="M16.691,19.846c0.276,0,0.5-0.224,0.5-0.5v-9.309c0-0.276-0.224-0.5-0.5-0.5s-0.5,0.224-0.5,0.5v9.309
		C16.191,19.622,16.415,19.846,16.691,19.846z"/>
	<path fill="#414042" d="M26,19.846c0.276,0,0.5-0.224,0.5-0.5v-9.309c0-0.276-0.224-0.5-0.5-0.5s-0.5,0.224-0.5,0.5v9.309
		C25.5,19.622,25.724,19.846,26,19.846z"/>
	<path fill="#414042" d="M21.346,19.846c0.276,0,0.5-0.224,0.5-0.5v-9.309c0-0.276-0.224-0.5-0.5-0.5s-0.5,0.224-0.5,0.5v9.309
		C20.846,19.622,21.069,19.846,21.346,19.846z"/>
	<path fill="#414042" d="M30.524,30.908H16.146c-0.276,0-0.5,0.224-0.5,0.5v4.443c0,0.276,0.224,0.5,0.5,0.5h14.379
		c0.276,0,0.5-0.224,0.5-0.5v-4.443C31.024,31.132,30.801,30.908,30.524,30.908z M30.024,35.352H16.646v-3.443h13.379V35.352z"/>
	<path fill="#414042" d="M38.316,14.338l-9.309-9.309c-0.094-0.094-0.221-0.146-0.354-0.146H10.037c-0.276,0-0.5,0.224-0.5,0.5
		v16.289c0,0.276,0.224,0.5,0.5,0.5h1.827v5.982h-1.827c-0.276,0-0.5,0.224-0.5,0.5v13.963c0,0.276,0.224,0.5,0.5,0.5h27.926
		c0.276,0,0.5-0.224,0.5-0.5V14.691C38.463,14.559,38.41,14.432,38.316,14.338z M37.463,42.117H10.537V29.154h1.827
		c0.276,0,0.5-0.224,0.5-0.5v-6.982c0-0.276-0.224-0.5-0.5-0.5h-1.827V5.883h17.91l9.016,9.016V42.117z"/>
	<path fill="#414042" d="M30.654,19.846c0.276,0,0.5-0.224,0.5-0.5v-4.654c0-0.276-0.224-0.5-0.5-0.5s-0.5,0.224-0.5,0.5v4.654
		C30.154,19.622,30.378,19.846,30.654,19.846z"/>
</g>
<g id="computer">
	<path fill="#414042" d="M42.419,7.231H11.894c-0.912,0-1.654,0.742-1.654,1.654v2.283H4.786c-0.505,0-0.857,0.537-0.857,1.305
		v26.988c0,0.77,0.353,1.307,0.857,1.307h11.908c0.504,0,0.855-0.537,0.855-1.307V12.474c0-0.768-0.352-1.305-0.855-1.305h-5.455
		V8.886c0-0.361,0.294-0.654,0.654-0.654h30.525c0.36,0,0.654,0.293,0.654,0.654v19.732c0,0.36-0.294,0.654-0.654,0.654H18.366
		c-0.276,0-0.5,0.224-0.5,0.5s0.224,0.5,0.5,0.5h24.053c0.912,0,1.654-0.742,1.654-1.654V8.886
		C44.073,7.974,43.331,7.231,42.419,7.231z M16.511,39.769H4.968c-0.02-0.067-0.039-0.169-0.039-0.307V28.886H16.55v10.576
		C16.55,39.6,16.53,39.701,16.511,39.769z M16.55,12.474v15.412H4.929V12.474c0-0.137,0.02-0.238,0.039-0.305h11.544
		C16.53,12.235,16.55,12.337,16.55,12.474z"/>
	<path fill="#414042" d="M31.337,33.376c0.276,0,0.5-0.224,0.5-0.5s-0.224-0.5-0.5-0.5h-8.363c-0.276,0-0.5,0.224-0.5,0.5
		s0.224,0.5,0.5,0.5H31.337z"/>
	<path fill="#414042" d="M39.755,35.415H18.366c-0.276,0-0.5,0.224-0.5,0.5s0.224,0.5,0.5,0.5h21.389c0.276,0,0.5-0.224,0.5-0.5
		S40.031,35.415,39.755,35.415z"/>
	<path fill="#414042" d="M10.741,30.265c-1.442,0-2.615,1.174-2.615,2.617c0,1.44,1.173,2.613,2.615,2.613
		c1.441,0,2.613-1.173,2.613-2.613C13.354,31.438,12.183,30.265,10.741,30.265z M10.741,34.495c-0.891,0-1.615-0.724-1.615-1.613
		c0-0.892,0.725-1.617,1.615-1.617c0.89,0,1.613,0.726,1.613,1.617C12.354,33.771,11.631,34.495,10.741,34.495z"/>
	<path fill="#414042" d="M12.427,37.015H9.054c-0.276,0-0.5,0.224-0.5,0.5s0.224,0.5,0.5,0.5h3.373c0.276,0,0.5-0.224,0.5-0.5
		S12.703,37.015,12.427,37.015z"/>
	<path fill="#414042" d="M6.313,18.04v1.074c0,0.721,0.586,1.307,1.307,1.307h6.242c0.721,0,1.307-0.586,1.307-1.307V18.04
		c0-0.719-0.586-1.305-1.307-1.305H7.62C6.899,16.735,6.313,17.321,6.313,18.04z M14.169,18.04v1.074
		c0,0.169-0.138,0.307-0.307,0.307H7.62c-0.169,0-0.307-0.138-0.307-0.307V18.04c0-0.168,0.138-0.305,0.307-0.305h6.242
		C14.031,17.735,14.169,17.872,14.169,18.04z"/>
</g>
<g id="thermometer">
	<path fill="#414042" d="M27.83,23.975V13.366c0-2.112-1.718-3.83-3.829-3.83h-0.277c-2.112,0-3.83,1.718-3.83,3.83v10.774
		c-2.255,1.411-3.643,3.901-3.643,6.572c0,4.273,3.477,7.75,7.75,7.75c4.272,0,7.749-3.477,7.749-7.75
		C31.75,27.913,30.255,25.354,27.83,23.975z M24.001,37.463c-3.722,0-6.75-3.027-6.75-6.75c0-2.417,1.305-4.664,3.406-5.864
		c0.177-0.101,0.26-0.31,0.236-0.509V13.366c0-1.561,1.27-2.83,2.83-2.83h0.277c1.56,0,2.829,1.27,2.829,2.83v10.932
		c0,0.211,0.16,0.393,0.359,0.465c2.197,1.181,3.561,3.456,3.561,5.95C30.75,34.436,27.723,37.463,24.001,37.463z"/>
	<path fill="#414042" d="M24.001,17.849c0.276,0,0.5-0.224,0.5-0.5v-0.76c0-0.276-0.224-0.5-0.5-0.5s-0.5,0.224-0.5,0.5v0.76
		C23.501,17.625,23.725,17.849,24.001,17.849z"/>
	<path fill="#414042" d="M24.378,26.667c0.074-0.087,0.123-0.195,0.123-0.319v-6.103c0-0.276-0.224-0.5-0.5-0.5s-0.5,0.224-0.5,0.5
		v6.103c0,0.123,0.049,0.232,0.123,0.319c-2.091,0.194-3.738,1.938-3.738,4.077c0,2.27,1.846,4.115,4.115,4.115
		c2.269,0,4.114-1.846,4.114-4.115C28.115,28.604,26.468,26.861,24.378,26.667z M24.001,33.859c-1.718,0-3.115-1.396-3.115-3.115
		c0-1.717,1.397-3.115,3.115-3.115c1.717,0,3.114,1.398,3.114,3.115C27.115,32.463,25.718,33.859,24.001,33.859z"/>
</g>

<!--Paste your icons above-->

</svg>