<?xml version='1.0' encoding='utf8'?>
<svg xmlns="http://www.w3.org/2000/svg" enable-background="new 0 0 48 48" version="1.1" viewBox="0 0 48 48" x="0px" xml:space="preserve" xmlns:xlink="http://www.w3.org/1999/xlink" y="0px">

<!--Paste your icons below-->
<g id="thermometer">
	<path fill="#414042" d="M27.83,23.975V13.366c0-2.112-1.718-3.83-3.829-3.83h-0.277c-2.112,0-3.83,1.718-3.83,3.83v10.774
		c-2.255,1.411-3.643,3.901-3.643,6.572c0,4.273,3.477,7.75,7.75,7.75c4.272,0,7.749-3.477,7.749-7.75
		C31.75,27.913,30.255,25.354,27.83,23.975z M24.001,37.463c-3.722,0-6.75-3.027-6.75-6.75c0-2.417,1.305-4.664,3.406-5.864
		c0.177-0.101,0.26-0.31,0.236-0.509V13.366c0-1.561,1.27-2.83,2.83-2.83h0.277c1.56,0,2.829,1.27,2.829,2.83v10.932
		c0,0.211,0.16,0.393,0.359,0.465c2.197,1.181,3.561,3.456,3.561,5.95C30.75,34.436,27.723,37.463,24.001,37.463z"/>
	<path fill="#414042" d="M24.001,17.849c0.276,0,0.5-0.224,0.5-0.5v-0.76c0-0.276-0.224-0.5-0.5-0.5s-0.5,0.224-0.5,0.5v0.76
		C23.501,17.625,23.725,17.849,24.001,17.849z"/>
	<path fill="#414042" d="M24.378,26.667c0.074-0.087,0.123-0.195,0.123-0.319v-6.103c0-0.276-0.224-0.5-0.5-0.5s-0.5,0.224-0.5,0.5
		v6.103c0,0.123,0.049,0.232,0.123,0.319c-2.091,0.194-3.738,1.938-3.738,4.077c0,2.27,1.846,4.115,4.115,4.115
		c2.269,0,4.114-1.846,4.114-4.115C28.115,28.604,26.468,26.861,24.378,26.667z M24.001,33.859c-1.718,0-3.115-1.396-3.115-3.115
		c0-1.717,1.397-3.115,3.115-3.115c1.717,0,3.114,1.398,3.114,3.115C27.115,32.463,25.718,33.859,24.001,33.859z"/>
</g>

<!--Paste your icons above-->

</svg>