<?xml version='1.0' encoding='utf8'?>
<svg xmlns="http://www.w3.org/2000/svg" enable-background="new 0 0 48 48" version="1.1" x="0px" xml:space="preserve" xmlns:xlink="http://www.w3.org/1999/xlink" y="0px">

<!--Paste your icons below-->

<g id="snowy">
<g>
	<g>
		<path d="M359.419,215.079c-11.884,0-23.291,2.727-33.63,7.978c-1.425-56.491-47.822-102.008-104.651-102.008
			c-19.734,0-38.336,5.543-54.236,15.206c-4.149,2.522-4.837,8.269-1.405,11.703c2.446,2.446,6.239,2.883,9.196,1.089
			c13.619-8.268,29.546-13.011,46.445-13.011c49.46,0,89.699,40.239,89.699,89.699c0,3.387-0.198,6.837-0.587,10.259
			c-0.28,2.453,0.479,4.967,2.294,6.641c2.804,2.586,6.938,2.643,9.778,0.385c10.657-8.474,23.484-12.952,37.097-12.952
			c32.904,0,59.672,26.769,59.672,59.673c0,31.192-24.353,57.329-55.444,59.505c-0.385,0.027-231.8,0.168-231.8,0.168
			c-35.517,0-64.413-28.896-64.413-64.413c0-33.279,24.932-60.831,57.996-64.096c3.499-0.346,6.28-3.034,6.719-6.522
			c1.727-13.685,6.528-26.329,13.641-37.298c1.916-2.954,1.492-6.846-0.998-9.337l-0.017-0.017
			c-3.378-3.378-9.003-2.766-11.601,1.243c-7.291,11.256-12.49,24.031-15.009,37.805c-17.266,3.002-33.079,11.658-45.012,24.748
			c-13.351,14.645-20.705,33.635-20.705,53.47c0,43.78,35.618,79.398,79.398,79.398c0,0,233.867-0.119,234.589-0.347
			c38.071-3.56,67.64-35.868,67.64-74.31C434.076,248.57,400.585,215.079,359.419,215.079z"/>
	</g>
</g>
<g>
	<g>
		<path d="M121.381,55.696c-4.221,0-8.383,0.672-12.342,1.977c-8.324-21.281-29.159-35.944-52.595-35.944
			C25.321,21.729,0,47.05,0,78.174c0,23.591,14.549,43.842,35.145,52.264c4.923,2.013,10.32-1.62,10.32-6.939v-0.008
			c0-3.086-1.916-5.799-4.77-6.976c-15.07-6.213-25.709-21.053-25.709-38.341c0-22.861,18.599-41.459,41.46-41.459
			c19.42,0,36.408,13.702,40.512,32.624c0.362,1.668,1.138,3.251,2.423,4.375c2.59,2.268,6.227,2.459,8.972,0.728
			c5.465-3.447,12.116-4.617,18.614-3.125c10.522,2.417,18.273,11.712,18.855,22.491c0.761,14.105-10.497,25.825-24.44,25.825
			H81.584c-4.135,0-7.488,3.352-7.488,7.488v0.011c0,4.135,3.352,7.488,7.488,7.488h39.056c21.549,0,39.681-16.967,40.191-38.51
			C161.356,73.917,143.457,55.696,121.381,55.696z"/>
	</g>
</g>
<g>
	<g>
		<path d="M483.268,151.081c-2.29,0-4.556,0.272-6.754,0.803c-6.408-13.936-20.562-23.37-36.388-23.37
			c-11.569,0-22.002,4.94-29.313,12.815l-12.521-6.551l28.293-14.802l14.829,4.642c0.745,0.234,1.499,0.345,2.241,0.345
			c3.189,0,6.145-2.052,7.148-5.256c1.237-3.949-0.962-8.153-4.912-9.389l-9.272-2.903l3.332-10.642
			c1.236-3.949-0.963-8.153-4.912-9.389c-3.95-1.237-8.152,0.963-9.389,4.912l-4.214,13.461l-31.816,16.645V88.527l10.988-10.988
			c2.926-2.926,2.926-7.671,0-10.596c-2.926-2.926-7.671-2.926-10.596,0l-6.87,6.87l-7.884-7.884c-2.926-2.926-7.67-2.926-10.596,0
			c-2.926,2.926-2.926,7.671,0,10.596l9.972,9.974v35.906l-31.815-16.644L338.605,92.3c-1.237-3.949-5.439-6.149-9.389-4.912
			c-3.949,1.236-6.148,5.44-4.912,9.389l3.332,10.642l-9.272,2.903c-3.949,1.236-6.148,5.44-4.912,9.389
			c1.003,3.204,3.959,5.256,7.148,5.256c0.741,0,1.496-0.111,2.241-0.345l14.829-4.642l28.293,14.802l-31.575,16.519l-13.461-4.214
			c-3.951-1.239-8.153,0.963-9.389,4.912c-1.237,3.949,0.962,8.153,4.912,9.389l10.641,3.331l-2.902,9.273
			c-1.237,3.949,0.962,8.153,4.912,9.389c0.745,0.234,1.499,0.345,2.241,0.345c3.189,0,6.145-2.052,7.148-5.256l4.642-14.83
			l31.501-16.482v37.581l-9.973,9.973c-2.926,2.926-2.926,7.67,0,10.596c1.463,1.463,3.381,2.195,5.298,2.195
			c1.917,0,3.835-0.731,5.298-2.195l7.884-7.884l6.87,6.87c2.926,2.926,7.671,2.926,10.596,0c2.926-2.926,2.926-7.67,0-10.596
			l-10.987-10.988v-35.552l13.207,6.909c-1.747,4.49-2.717,9.365-2.717,14.466c0,22.064,17.951,40.016,40.016,40.016h43.143
			c15.843,0,28.732-12.889,28.732-28.732C512,163.973,499.111,151.081,483.268,151.081z M483.268,193.561h-43.143
			c-13.802,0-25.031-11.228-25.031-25.031c0-13.803,11.228-25.031,25.031-25.031c11.786,0,22.089,8.358,24.497,19.874
			c0.503,2.403,2.15,4.407,4.41,5.365c2.26,0.957,4.845,0.749,6.921-0.561c2.189-1.381,4.718-2.111,7.315-2.111
			c7.58,0,13.747,6.167,13.747,13.747C497.015,187.392,490.848,193.561,483.268,193.561z"/>
	</g>
</g>
<g>
	<g>
		<path d="M276.273,410.289l-6.398-4.101l6.297-4.256c3.429-2.317,4.329-6.974,2.012-10.404c-2.317-3.429-6.974-4.33-10.404-2.012
			l-4.038,2.729v-4.874c0-4.138-3.355-7.493-7.493-7.493s-7.493,3.355-7.493,7.493v5.279l-4.444-2.849
			c-3.483-2.232-8.117-1.221-10.351,2.265c-2.233,3.484-1.22,8.118,2.265,10.351l6.398,4.101l-6.297,4.256
			c-3.429,2.317-4.329,6.974-2.012,10.404c1.448,2.143,3.809,3.298,6.215,3.298c1.444,0,2.902-0.417,4.189-1.286l4.038-2.729v4.874
			c0,4.138,3.355,7.493,7.493,7.493c4.138,0,7.493-3.355,7.493-7.493v-5.279l4.444,2.849c1.252,0.802,2.652,1.186,4.037,1.186
			c2.468,0,4.884-1.218,6.315-3.451C280.771,417.157,279.757,412.522,276.273,410.289z"/>
	</g>
</g>
<g>
	<g>
		<path d="M180.367,410.789l-6.398-4.101l6.297-4.256c3.429-2.317,4.329-6.974,2.012-10.404c-2.317-3.429-6.973-4.33-10.404-2.012
			l-4.038,2.729v-4.874c0-4.138-3.355-7.493-7.493-7.493c-4.138,0-7.493,3.355-7.493,7.493v5.279l-4.444-2.849
			c-3.483-2.232-8.118-1.22-10.351,2.265c-2.233,3.484-1.22,8.118,2.265,10.351l6.398,4.101l-6.297,4.256
			c-3.429,2.317-4.329,6.974-2.012,10.404c1.448,2.143,3.809,3.298,6.215,3.298c1.444,0,2.902-0.417,4.189-1.286l4.038-2.729v4.874
			c0,4.138,3.355,7.493,7.493,7.493s7.493-3.355,7.493-7.493v-5.279l4.444,2.849c1.252,0.802,2.652,1.186,4.037,1.186
			c2.468,0,4.884-1.218,6.315-3.451C184.864,417.656,183.85,413.022,180.367,410.789z"/>
	</g>
</g>
<g>
	<g>
		<path d="M227.321,467.733l-6.398-4.101l6.297-4.256c3.429-2.317,4.329-6.974,2.012-10.404c-2.317-3.429-6.974-4.33-10.404-2.012
			l-4.038,2.729v-4.874c0-4.138-3.355-7.493-7.493-7.493c-4.138,0-7.493,3.355-7.493,7.493v5.279l-4.444-2.849
			c-3.483-2.233-8.118-1.22-10.351,2.265c-2.233,3.484-1.22,8.118,2.265,10.351l6.398,4.101l-6.297,4.256
			c-3.429,2.317-4.329,6.974-2.012,10.404c1.448,2.143,3.809,3.298,6.215,3.298c1.444,0,2.902-0.417,4.189-1.286l4.038-2.729v4.874
			c0,4.138,3.355,7.493,7.493,7.493c4.138,0,7.493-3.355,7.493-7.493V477.5l4.444,2.849c1.252,0.802,2.652,1.186,4.037,1.186
			c2.468,0,4.884-1.218,6.315-3.451C231.819,474.601,230.805,469.966,227.321,467.733z"/>
	</g>
</g>
<g>
	<g>
		<path d="M321.229,467.733l-6.398-4.101l6.297-4.256c3.429-2.317,4.329-6.974,2.012-10.404c-2.317-3.429-6.974-4.33-10.404-2.012
			l-4.038,2.729v-4.874c0-4.138-3.355-7.493-7.493-7.493c-4.138,0-7.493,3.355-7.493,7.493v5.279l-4.444-2.849
			c-3.482-2.233-8.117-1.22-10.351,2.265c-2.233,3.484-1.22,8.118,2.265,10.351l6.398,4.101l-6.297,4.256
			c-3.429,2.317-4.329,6.974-2.012,10.404c1.448,2.143,3.809,3.298,6.215,3.298c1.444,0,2.902-0.417,4.189-1.286l4.038-2.729v4.874
			c0,4.138,3.355,7.493,7.493,7.493c4.138,0,7.493-3.355,7.493-7.493V477.5l4.444,2.849c1.252,0.802,2.652,1.186,4.037,1.186
			c2.468,0,4.884-1.218,6.315-3.451C325.727,474.601,324.713,469.966,321.229,467.733z"/>
	</g>
</g>
<g>
	<g>
		<path d="M365.186,410.789l-6.398-4.101l6.297-4.256c3.429-2.317,4.329-6.974,2.012-10.404c-2.317-3.429-6.973-4.33-10.404-2.012
			l-4.038,2.729v-4.874c0-4.138-3.355-7.493-7.493-7.493c-4.138,0-7.493,3.355-7.493,7.493v5.279l-4.444-2.849
			c-3.483-2.232-8.118-1.22-10.351,2.265c-2.233,3.484-1.22,8.118,2.265,10.351l6.398,4.101l-6.297,4.256
			c-3.429,2.317-4.329,6.974-2.012,10.404c1.448,2.143,3.809,3.298,6.215,3.298c1.444,0,2.902-0.417,4.189-1.286l4.038-2.729v4.874
			c0,4.138,3.355,7.493,7.493,7.493c4.138,0,7.493-3.355,7.493-7.493v-5.279l4.444,2.849c1.252,0.802,2.652,1.186,4.037,1.186
			c2.468,0,4.884-1.218,6.315-3.451C369.684,417.656,368.67,413.022,365.186,410.789z"/>
	</g>
</g>
</g>
<g id="rainy">
<g>
	<g>
		<path d="M371.644,236.9c-11.892,0-23.306,2.73-33.653,7.983c-1.425-56.527-47.852-102.073-104.716-102.073
			c-21.05,0-40.814,6.299-57.386,17.181c-3.958,2.599-4.498,8.198-1.151,11.546c2.513,2.513,6.44,2.904,9.412,0.956
			c14.191-9.303,31.108-14.688,49.125-14.688c49.491,0,89.755,40.264,89.755,89.757c0,3.379-0.196,6.815-0.582,10.22
			c-0.308,2.713,0.66,5.485,2.828,7.146c2.783,2.131,6.584,2.049,9.247-0.07c10.663-8.479,23.5-12.961,37.121-12.961
			c32.925,0,59.71,26.786,59.71,59.711c0,31.211-24.37,57.365-55.479,59.543c-0.385,0.027-231.946,0.168-231.946,0.168
			c-35.541,0-64.455-28.914-64.455-64.454c0-33.306,24.958-60.879,58.053-64.138c3.471-0.342,6.263-2.994,6.697-6.454
			c1.582-12.625,5.783-24.364,11.998-34.723c1.765-2.944,1.299-6.709-1.129-9.136l-0.007-0.007
			c-3.436-3.436-9.208-2.759-11.709,1.406c-6.308,10.502-10.84,22.223-13.137,34.782c-17.278,3.004-33.1,11.665-45.042,24.764
			c-13.362,14.654-20.721,33.657-20.721,53.504c0,43.808,35.641,79.449,79.45,79.449c0,0,234.015-0.119,234.737-0.347
			c38.092-3.565,67.683-35.893,67.683-74.358C446.348,270.413,412.836,236.9,371.644,236.9z"/>
	</g>
</g>
<g>
	<g>
		<path d="M121.459,77.415c-4.225,0-8.388,0.673-12.35,1.978C100.78,58.1,79.931,43.427,56.481,43.427
			C25.337,43.427,0,68.764,0,99.908c0,22.798,13.581,42.473,33.076,51.383c4.927,2.252,10.527-1.438,10.527-6.856v-0.001
			c0-2.97-1.776-5.609-4.471-6.856c-14.234-6.579-24.137-20.986-24.137-37.67c0-22.875,18.611-41.486,41.486-41.486
			c19.436,0,36.44,13.716,40.541,32.659c0.362,1.671,1.143,3.255,2.433,4.378c2.597,2.258,6.226,2.442,8.965,0.716
			c5.468-3.449,12.123-4.62,18.624-3.127c10.528,2.417,18.286,11.716,18.87,22.503c0.763,14.116-10.501,25.844-24.455,25.844H79.747
			c-4.139,0-7.493,3.355-7.493,7.493v0.008c0,4.139,3.355,7.493,7.493,7.493h40.971c21.563,0,39.707-16.978,40.216-38.535
			C161.459,95.648,143.548,77.415,121.459,77.415z"/>
	</g>
</g>
<g>
	<g>
		<path d="M467.616,54.627c-5.117,0-10.156,0.879-14.917,2.58c-9.159-24.678-33.067-41.771-60.007-41.771
			c-35.278,0-63.978,28.7-63.978,63.978c0,24.966,14.379,46.624,35.287,57.158c4.968,2.503,10.834-1.153,10.834-6.716v-0.005
			c0-2.826-1.593-5.408-4.118-6.681c-16.003-8.067-27.009-24.646-27.009-43.756c0-27.01,21.974-48.983,48.983-48.983
			c22.973,0,43.067,16.231,47.885,38.634c0.359,1.67,1.149,3.249,2.441,4.367c2.598,2.248,6.216,2.431,8.952,0.706
			c4.686-2.955,10.097-4.516,15.646-4.516c16.5,0,29.869,13.669,29.375,30.278c-0.475,15.984-14.009,28.498-30,28.498h-56.012
			c-4.139,0-7.493,3.355-7.493,7.493v0.008c0,4.139,3.355,7.493,7.493,7.493h55.85c24.835,0,45.589-20.323,45.164-45.154
			C511.58,74.12,491.832,54.627,467.616,54.627z"/>
	</g>
</g>
<g>
	<g>
		<path d="M407.347,170.453c-0.094-2.307-1.246-4.443-3.122-5.788c-1.876-1.347-4.269-1.751-6.483-1.102
			c-6.699,1.968-22.825,7.307-27.872,14.343c-6.491,9.051-4.409,21.696,4.641,28.186c3.557,2.552,7.669,3.779,11.745,3.779
			c6.294,0,12.502-2.926,16.441-8.419C407.744,194.415,407.63,177.429,407.347,170.453z M390.482,192.752
			c-1.681,2.298-4.915,2.817-7.233,1.156c-2.331-1.671-2.867-4.929-1.242-7.201c1.077-1.259,5.201-3.363,10.273-5.391
			C391.988,186.742,391.323,191.303,390.482,192.752z"/>
	</g>
</g>
<g>
	<g>
		<path d="M472.324,161.456c-0.093-2.307-1.246-4.443-3.122-5.788c-1.876-1.347-4.27-1.751-6.483-1.102
			c-6.699,1.968-22.825,7.307-27.872,14.343c-6.491,9.051-4.409,21.696,4.641,28.186c3.558,2.552,7.669,3.779,11.745,3.779
			c6.294,0,12.502-2.926,16.441-8.419C472.722,185.418,472.608,168.432,472.324,161.456z M455.46,183.756
			c-1.681,2.298-4.915,2.817-7.233,1.156c-2.331-1.672-2.867-4.93-1.242-7.202c1.077-1.259,5.201-3.363,10.273-5.391
			C456.966,177.745,456.301,182.307,455.46,183.756z"/>
	</g>
</g>
<g>
	<g>
		<path d="M263.4,404.57c-0.033-2.378-1.194-4.599-3.127-5.985c-1.932-1.387-4.406-1.773-6.673-1.043
			c-6.496,2.096-22.143,7.723-27.134,14.68c-6.491,9.051-4.655,21.518,4.092,27.792c3.272,2.347,7.111,3.567,11.089,3.567
			c1.25,0,2.515-0.121,3.779-0.365c5.134-0.991,9.67-3.916,12.769-8.237C263.185,428.022,263.498,411.396,263.4,404.57z
			 M245.993,426.264c-0.854,1.179-2.062,1.969-3.407,2.229c-0.696,0.133-2.047,0.226-3.288-0.664
			c-2.028-1.456-2.318-4.536-0.674-6.831c0.994-1.212,4.714-3.257,9.375-5.3C247.561,420.751,246.819,424.919,245.993,426.264z"/>
	</g>
</g>
<g>
	<g>
		<path d="M356.368,404.571c-0.032-2.379-1.193-4.599-3.126-5.986c-1.932-1.387-4.406-1.773-6.673-1.043
			c-6.496,2.096-22.143,7.723-27.134,14.68c-6.491,9.051-4.655,21.518,4.092,27.792c3.272,2.347,7.111,3.567,11.089,3.567
			c1.25,0,2.515-0.121,3.779-0.365c5.134-0.991,9.67-3.916,12.769-8.237C356.152,428.023,356.466,411.397,356.368,404.571z
			 M338.962,426.264c-0.854,1.179-2.062,1.969-3.407,2.229c-0.695,0.133-2.048,0.226-3.288-0.664
			c-2.028-1.456-2.318-4.536-0.674-6.831c0.994-1.212,4.714-3.257,9.375-5.3C340.529,420.751,339.788,424.919,338.962,426.264z"/>
	</g>
</g>
<g>
	<g>
		<path d="M177.43,404.57c-0.033-2.378-1.194-4.599-3.127-5.985c-1.932-1.387-4.406-1.773-6.673-1.043
			c-6.496,2.096-22.143,7.723-27.134,14.68c-6.491,9.051-4.655,21.518,4.092,27.792c3.272,2.347,7.111,3.567,11.089,3.567
			c1.25,0,2.515-0.121,3.779-0.365c5.134-0.991,9.671-3.916,12.77-8.238C177.214,428.022,177.528,411.396,177.43,404.57z
			 M160.023,426.264c-0.854,1.179-2.062,1.969-3.407,2.229c-0.695,0.133-2.047,0.226-3.288-0.664
			c-2.028-1.456-2.318-4.536-0.674-6.831c0.994-1.212,4.714-3.257,9.375-5.3C161.59,420.751,160.848,424.919,160.023,426.264z"/>
	</g>
</g>
<g>
	<g>
		<path d="M208.418,457.553c-0.032-2.379-1.193-4.599-3.126-5.986c-1.932-1.387-4.406-1.773-6.673-1.043
			c-6.496,2.096-22.143,7.723-27.134,14.68c-6.491,9.051-4.655,21.518,4.092,27.792c3.272,2.347,7.111,3.567,11.089,3.567
			c1.25,0,2.515-0.121,3.779-0.365c5.134-0.991,9.67-3.916,12.769-8.237C208.202,481.005,208.516,464.379,208.418,457.553z
			 M191.012,479.246c-0.854,1.179-2.062,1.969-3.407,2.229c-0.696,0.133-2.047,0.226-3.288-0.664
			c-2.028-1.456-2.318-4.536-0.674-6.831c0.994-1.212,4.714-3.257,9.375-5.3C192.58,473.733,191.838,477.901,191.012,479.246z"/>
	</g>
</g>
<g>
	<g>
		<path d="M302.386,457.553c-0.032-2.379-1.193-4.599-3.126-5.986c-1.932-1.387-4.406-1.773-6.673-1.043
			c-6.496,2.096-22.143,7.723-27.134,14.68c-6.491,9.051-4.655,21.518,4.092,27.792c3.272,2.347,7.111,3.567,11.089,3.567
			c1.25,0,2.515-0.121,3.779-0.365c5.134-0.991,9.67-3.916,12.769-8.237C302.17,481.005,302.484,464.379,302.386,457.553z
			 M284.98,479.246c-0.854,1.179-2.062,1.969-3.407,2.229c-0.696,0.133-2.048,0.226-3.288-0.664
			c-2.028-1.456-2.318-4.536-0.674-6.831c0.994-1.212,4.714-3.257,9.375-5.3C286.548,473.733,285.806,477.901,284.98,479.246z"/>
	</g>
</g>
</g>
<g id="cloudy">
<g>
	<g>
		<path d="M121.5,129.25c-4.225,0-8.391,0.673-12.354,1.979C100.814,109.927,79.958,95.25,56.5,95.25
			c-31.154,0-56.5,25.346-56.5,56.5c0,23.468,14.382,43.639,34.795,52.164c4.929,2.058,10.366-1.589,10.366-6.93v-0.02
			c0-3.067-1.892-5.769-4.718-6.96C25.512,183.716,15,168.942,15,151.75c0-22.883,18.617-41.5,41.5-41.5
			c19.44,0,36.445,13.716,40.553,32.658c0.362,1.67,1.139,3.253,2.425,4.378c2.593,2.269,6.233,2.461,8.981,0.729
			c5.47-3.45,12.128-4.622,18.632-3.128c10.532,2.419,18.291,11.723,18.873,22.513c0.762,14.119-10.507,25.85-24.464,25.85H81.315
			c-4.139,0-7.494,3.355-7.494,7.494v0.013c0,4.139,3.355,7.494,7.494,7.494h39.444c21.57,0,39.72-16.984,40.23-38.548
			C161.514,147.489,143.597,129.25,121.5,129.25z"/>
	</g>
</g>
<g>
	<g>
		<path d="M472.5,258.25c-4.225,0-8.391,0.673-12.354,1.979c-8.333-21.302-29.188-35.979-52.646-35.979
			c-31.154,0-56.5,25.346-56.5,56.5c0,2.881,0.219,5.711,0.637,8.477c-8.964,0.959-17.565,3.502-25.531,7.547
			c-1.426-56.546-47.869-102.108-104.753-102.108c-20.598,0-39.972,6.021-56.327,16.472c-4.048,2.587-4.69,8.244-1.292,11.641
			c2.491,2.491,6.373,2.899,9.342,1.002c14.016-8.956,30.623-14.115,48.277-14.115c49.508,0,89.787,40.278,89.787,89.787
			c0,3.391-0.198,6.845-0.588,10.271c-0.28,2.455,0.479,4.97,2.295,6.645c2.807,2.589,6.946,2.646,9.789,0.385
			c9.674-7.692,21.138-12.083,33.353-12.836c8.864,19.63,28.611,33.332,51.511,33.332h5.926c3.982,8.132,6.074,17.138,6.074,26.27
			c0,31.222-24.377,57.385-55.498,59.563c-0.385,0.027-232.026,0.168-232.026,0.168c-35.552,0-64.476-28.924-64.476-64.476
			c0-33.317,24.965-60.9,58.072-64.16c3.467-0.341,6.264-2.987,6.697-6.444c1.629-13.002,6.029-25.068,12.549-35.654
			c1.816-2.949,1.363-6.757-1.086-9.206l-0.001-0.001c-3.417-3.417-9.141-2.764-11.677,1.349
			c-6.638,10.766-11.399,22.845-13.772,35.82c-17.283,3.005-33.111,11.669-45.056,24.772C59.861,319.911,52.5,338.92,52.5,358.774
			c0,43.823,35.653,79.476,79.476,79.476c0,0,234.095-0.119,234.818-0.347C404.902,434.34,434.5,402,434.5,363.52
			c0-9.003-1.63-17.912-4.761-26.27h42.02c21.57,0,39.72-16.984,40.23-38.548C512.514,276.489,494.597,258.25,472.5,258.25z
			 M472.5,322.25h-65c-22.883,0-41.5-18.617-41.5-41.5s18.617-41.5,41.5-41.5c19.542,0,36.623,13.86,40.616,32.956
			c0.503,2.405,2.152,4.411,4.414,5.37c2.261,0.958,4.85,0.749,6.928-0.562c3.905-2.463,8.415-3.765,13.042-3.765
			c13.509,0,24.5,10.991,24.5,24.5C497,311.258,486.009,322.25,472.5,322.25z"/>
	</g>
</g>
<g>
	<g>
		<path d="M405.031,113.995c-5.298,0-10.515,0.922-15.436,2.704c-9.326-25.364-33.854-42.949-61.503-42.949
			c-36.117,0-65.5,29.383-65.5,65.5c0,28.064,17.743,52.056,42.599,61.361c4.893,1.832,10.112-1.804,10.112-7.029v-0.009
			c0-3.151-1.985-5.928-4.934-7.037c-19.129-7.193-32.777-25.674-32.777-47.286c0-27.846,22.654-50.5,50.5-50.5
			c23.693,0,44.414,16.744,49.371,39.852c0.358,1.67,1.15,3.246,2.443,4.361c2.6,2.242,6.217,2.426,8.952,0.7
			c4.843-3.054,10.435-4.668,16.172-4.668c17.056,0,30.874,14.129,30.364,31.298c-0.491,16.522-14.481,29.457-31.01,29.457h-52.927
			c-4.139,0-7.494,3.355-7.494,7.494v0.013c0,4.139,3.355,7.494,7.494,7.494h52.769c25.391,0,46.61-20.778,46.175-46.166
			C449.979,133.925,429.788,113.995,405.031,113.995z"/>
	</g>
</g>
</g>
<g id="storm">
<g>
	<g>
		<path d="M121.5,55.75c-4.225,0-8.391,0.673-12.354,1.979C100.814,36.427,79.958,21.75,56.5,21.75C25.346,21.75,0,47.095,0,78.25
			c0,23.397,14.296,43.515,34.611,52.084c4.924,2.077,10.374-1.571,10.374-6.915v-0.034c0-3.053-1.876-5.745-4.685-6.941
			C25.444,110.121,15,95.386,15,78.25c0-22.883,18.617-41.5,41.5-41.5c19.441,0,36.447,13.717,40.553,32.661
			c0.362,1.67,1.14,3.253,2.426,4.377c2.594,2.267,6.233,2.458,8.979,0.727c5.47-3.45,12.128-4.622,18.632-3.128
			c10.532,2.419,18.291,11.723,18.873,22.513c0.762,14.119-10.507,25.85-24.464,25.85H81.131c-4.134,0-7.486,3.351-7.486,7.486
			v0.029c0,4.134,3.351,7.486,7.486,7.486h39.628c21.57,0,39.72-16.984,40.23-38.548C161.514,73.988,143.597,55.75,121.5,55.75z"/>
	</g>
</g>
<g>
	<g>
		<path d="M472.5,123.75c-4.225,0-8.391,0.673-12.354,1.979c-8.333-21.302-29.188-35.979-52.646-35.979
			c-31.154,0-56.5,25.346-56.5,56.5c0,22.747,13.516,42.386,32.936,51.332c4.922,2.267,10.532-1.422,10.532-6.841v-0.026
			c0-2.957-1.763-5.588-4.443-6.838C375.851,177.269,366,162.892,366,146.25c0-22.883,18.617-41.5,41.5-41.5
			c19.445,0,36.454,13.723,40.556,32.673c0.362,1.671,1.143,3.254,2.433,4.375c2.597,2.257,6.227,2.446,8.97,0.717
			c5.47-3.45,12.128-4.622,18.632-3.128c10.532,2.419,18.291,11.723,18.873,22.513c0.762,14.119-10.507,25.85-24.464,25.85h-41.885
			c-4.134,0-7.486,3.351-7.486,7.486v0.029c0,4.134,3.351,7.486,7.486,7.486h41.144c21.57,0,39.72-16.984,40.23-38.548
			C512.514,141.988,494.597,123.75,472.5,123.75z"/>
	</g>
</g>
<g>
	<g>
		<path d="M359.77,215.288c-11.896,0-23.314,2.73-33.663,7.986c-1.426-56.546-47.869-102.108-104.753-102.108
			c-18.737,0-36.462,4.981-51.822,13.746c-4.275,2.44-5.027,8.301-1.547,11.782l0.024,0.024c2.369,2.369,6.035,2.895,8.945,1.235
			c13.161-7.511,28.344-11.786,44.4-11.786c49.508,0,89.787,40.278,89.787,89.787c0,3.39-0.198,6.843-0.587,10.268
			c-0.279,2.455,0.479,4.972,2.295,6.647c2.807,2.59,6.947,2.647,9.789,0.386c10.667-8.482,23.507-12.965,37.133-12.965
			c32.936,0,59.73,26.795,59.73,59.731c0,31.222-24.377,57.385-55.498,59.563c-0.385,0.027-0.385,0.027-0.385,0.027l-230.661,0.141
			c-35.879,0-65.86-29.358-65.451-65.235c0.376-32.977,25.213-60.166,58.068-63.402c3.477-0.342,6.264-2.995,6.699-6.462
			c1.828-14.566,7.123-27.966,14.99-39.416c2.055-2.991,1.724-7.009-0.842-9.575c-3.311-3.311-8.815-2.805-11.471,1.052
			c-8.157,11.844-13.961,25.472-16.667,40.264C101,209.983,85.172,218.647,73.227,231.75
			c-14.136,15.506-21.555,35.875-20.653,56.963c1.826,42.697,37.704,76.037,80.44,76.037h52.294l-9.139,42.374
			c-0.66,3.064,0.644,6.314,3.507,8.04c1.202,0.725,2.608,1.041,4.012,1.041h24.699l-13.388,64.755
			c-0.638,3.087,0.551,6.359,3.195,8.074c1.265,0.82,2.685,1.216,4.09,1.216c2.049,0,4.066-0.839,5.523-2.424l72.713-79.064
			c2.41-2.621,2.694-6.651,0.441-9.633c-1.445-1.914-3.783-2.944-6.182-2.944h-12.903l9.778-31.435c0,0,94.417-0.119,95.139-0.347
			c38.108-3.563,67.706-35.903,67.706-74.384C434.5,248.813,400.976,215.288,359.77,215.288z M215.122,457.715l9.818-47.491
			c0.457-2.209-0.105-4.506-1.529-6.255c-1.424-1.749-3.56-2.764-5.815-2.764H192.79l7.863-36.455h55.293l-11.417,36.708
			c-0.708,2.276-0.292,4.754,1.122,6.674c1.413,1.92,3.655,3.053,6.04,3.053h6.223L215.122,457.715z"/>
	</g>
</g>
<g>
	<g>
		<path d="M164.49,390.016c-0.034-2.379-1.195-4.601-3.128-5.988c-1.933-1.386-4.41-1.773-6.674-1.043
			c-6.499,2.097-22.151,7.726-27.142,14.685c-6.494,9.053-4.658,21.525,4.093,27.801c3.273,2.348,7.113,3.568,11.092,3.568
			c1.25,0,2.516-0.121,3.78-0.365c5.136-0.991,9.672-3.917,12.773-8.24C164.275,413.476,164.588,396.844,164.49,390.016z
			 M147.077,411.716c-0.854,1.179-2.063,1.971-3.408,2.23c-0.694,0.134-2.048,0.226-3.289-0.664
			c-2.029-1.456-2.319-4.538-0.674-6.833c0.995-1.212,4.718-3.259,9.382-5.304C148.649,406.196,147.906,410.366,147.077,411.716z"/>
	</g>
</g>
<g>
	<g>
		<path d="M372.49,390.016c-0.034-2.379-1.194-4.601-3.128-5.988c-1.933-1.386-4.409-1.773-6.674-1.043
			c-6.499,2.097-22.151,7.726-27.142,14.685c-6.494,9.053-4.658,21.525,4.093,27.801c3.273,2.348,7.113,3.568,11.092,3.568
			c1.25,0,2.516-0.121,3.78-0.365c5.136-0.991,9.672-3.917,12.773-8.24C372.275,413.476,372.588,396.844,372.49,390.016z
			 M355.077,411.716c-0.854,1.179-2.063,1.971-3.408,2.23c-0.694,0.134-2.048,0.226-3.289-0.664
			c-2.029-1.456-2.319-4.538-0.674-6.833c0.995-1.212,4.718-3.259,9.382-5.304C356.65,406.196,355.906,410.366,355.077,411.716z"/>
	</g>
</g>
<g>
	<g>
		<path d="M91.49,390.016c-0.034-2.379-1.194-4.601-3.128-5.988c-1.933-1.386-4.409-1.773-6.674-1.043
			c-6.499,2.097-22.151,7.726-27.142,14.685c-6.494,9.053-4.658,21.525,4.093,27.801c3.273,2.348,7.113,3.568,11.092,3.568
			c1.25,0,2.515-0.121,3.78-0.365c5.136-0.991,9.672-3.917,12.773-8.24C91.275,413.476,91.588,396.844,91.49,390.016z
			 M74.077,411.716c-0.854,1.179-2.063,1.971-3.408,2.23c-0.694,0.134-2.047,0.226-3.289-0.664
			c-2.029-1.456-2.319-4.538-0.674-6.833c0.995-1.212,4.718-3.259,9.382-5.304C75.65,406.196,74.906,410.366,74.077,411.716z"/>
	</g>
</g>
<g>
	<g>
		<path d="M109.49,443.016c-0.034-2.379-1.195-4.601-3.128-5.988c-1.933-1.386-4.409-1.773-6.674-1.043
			c-6.499,2.097-22.151,7.726-27.142,14.685c-6.494,9.053-4.658,21.525,4.093,27.801c3.273,2.348,7.113,3.568,11.092,3.568
			c1.25,0,2.516-0.121,3.78-0.365c5.136-0.991,9.672-3.917,12.773-8.24C109.275,466.476,109.588,449.844,109.49,443.016z
			 M92.077,464.716c-0.854,1.179-2.063,1.971-3.408,2.23c-0.694,0.134-2.047,0.226-3.289-0.664
			c-2.029-1.456-2.319-4.538-0.674-6.833c0.995-1.212,4.718-3.259,9.382-5.304C93.649,459.196,92.906,463.366,92.077,464.716z"/>
	</g>
</g>
<g>
	<g>
		<path d="M394.49,443.016c-0.034-2.379-1.195-4.601-3.128-5.988c-1.933-1.386-4.41-1.773-6.674-1.043
			c-6.499,2.097-22.151,7.726-27.142,14.685c-6.494,9.053-4.658,21.525,4.093,27.801c3.273,2.348,7.113,3.568,11.092,3.568
			c1.25,0,2.516-0.121,3.78-0.365c5.136-0.991,9.672-3.917,12.773-8.24C394.275,466.476,394.588,449.844,394.49,443.016z
			 M377.077,464.716c-0.854,1.179-2.063,1.971-3.408,2.23c-0.695,0.134-2.047,0.226-3.289-0.664
			c-2.029-1.456-2.319-4.538-0.674-6.833c0.995-1.212,4.718-3.259,9.382-5.304C378.649,459.196,377.906,463.366,377.077,464.716z"/>
	</g>
</g>
<g>
	<g>
		<path d="M327.49,443.016c-0.034-2.379-1.195-4.601-3.128-5.988c-1.933-1.386-4.41-1.773-6.674-1.043
			c-6.499,2.097-22.151,7.726-27.142,14.685c-6.494,9.053-4.658,21.525,4.093,27.801c3.273,2.348,7.113,3.568,11.092,3.568
			c1.25,0,2.516-0.121,3.78-0.365c5.136-0.991,9.672-3.917,12.773-8.24C327.275,466.476,327.588,449.844,327.49,443.016z
			 M310.077,464.716c-0.854,1.179-2.063,1.971-3.408,2.23c-0.694,0.134-2.047,0.226-3.289-0.664
			c-2.029-1.456-2.319-4.538-0.674-6.833c0.995-1.212,4.718-3.259,9.382-5.304C311.649,459.196,310.906,463.366,310.077,464.716z"/>
	</g>
</g>
</g>
<g id="sunnyClouds">
<g>
	<g>
		<path d="M121.619,118.366c-4.229,0-8.399,0.674-12.366,1.981c-8.34-21.323-29.217-36.014-52.697-36.014
			C25.371,84.332,0,109.703,0,140.888c0,22.277,12.948,41.584,31.711,50.797c5.017,2.463,10.884-1.122,10.884-6.711
			c0-2.908-1.701-5.507-4.31-6.791c-13.769-6.772-23.27-20.943-23.27-37.295c0-22.905,18.635-41.541,41.541-41.541
			c19.458,0,36.48,13.728,40.592,32.689c0.362,1.673,1.141,3.257,2.429,4.384c2.597,2.271,6.239,2.462,8.988,0.729
			c5.475-3.453,12.14-4.627,18.65-3.131c10.542,2.421,18.309,11.734,18.891,22.535c0.763,14.133-10.517,25.875-24.488,25.875H78.79
			c-4.146,0-7.507,3.361-7.507,7.507s3.361,7.507,7.507,7.507h42.087c21.591,0,39.759-17.001,40.269-38.586
			C161.672,136.621,143.737,118.366,121.619,118.366z"/>
	</g>
</g>
<g>
	<g>
		<path d="M477.069,213.664c-3.394,0-6.746,0.492-9.959,1.447c-7.537-18.156-25.54-30.586-45.747-30.586
			c-6.503,0-12.791,1.239-18.733,3.676c-14.783-11.753-33.48-18.786-53.791-18.786c-26.705,0-51.555,12.16-67.923,32.882
			c-16.888-11.631-37.335-18.452-59.347-18.452c-18.597,0-36.196,4.907-51.481,13.544c-4.3,2.43-5.063,8.317-1.57,11.81l0.018,0.018
			c2.364,2.364,6.02,2.896,8.932,1.251c13.095-7.399,28.169-11.608,44.102-11.608c49.556,0,89.875,40.317,89.875,89.875
			c0,3.393-0.198,6.85-0.588,10.278c-0.279,2.457,0.479,4.977,2.297,6.654c2.81,2.593,6.954,2.65,9.799,0.386
			c10.677-8.49,23.53-12.978,37.169-12.978c32.968,0,59.788,26.821,59.788,59.789c0,31.253-24.401,57.441-55.552,59.621
			c-0.385,0.027-232.253,0.168-232.253,0.168c-35.587,0-64.539-28.952-64.539-64.539c0-33.35,24.989-60.96,58.129-64.223
			c3.485-0.343,6.272-3.015,6.709-6.489c1.849-14.703,7.228-28.217,15.218-39.74c2.077-2.995,1.753-7.036-0.825-9.612
			c-3.308-3.308-8.804-2.809-11.473,1.034c-8.293,11.938-14.191,25.704-16.926,40.658c-17.3,3.008-33.143,11.68-45.1,24.796
			c-13.378,14.675-20.746,33.703-20.746,53.576c0,43.866,35.688,79.554,79.554,79.554c0,0,234.324-0.119,235.048-0.347
			c38.145-3.566,67.772-35.938,67.772-74.457c0-17.382-5.976-33.384-15.958-46.099c5.147-7.112,9.155-14.966,11.934-23.239h45.472
			c19.544,0,35.955-15.994,35.622-35.535C511.672,229.008,496.129,213.664,477.069,213.664z M408.352,295.749
			c-13.033-11.023-29.864-17.688-48.23-17.688c-11.908,0-23.337,2.733-33.696,7.994c-0.741-29.366-13.613-55.767-33.778-74.382
			c13.532-17.167,34.095-27.243,56.194-27.243c39.464,0,71.57,32.106,71.57,71.57C420.411,270.162,416.16,284.046,408.352,295.749z
			 M477.069,268.512h-42.575c0.607-4.129,0.931-8.309,0.931-12.512c0-21.269-7.713-40.767-20.482-55.855
			c2.099-0.394,4.24-0.605,6.42-0.605c16.239,0,30.433,11.517,33.751,27.385c0.503,2.407,2.154,4.415,4.418,5.375
			c2.264,0.959,4.854,0.75,6.935-0.563c3.173-2.002,6.84-3.06,10.6-3.06c10.983,0,19.916,8.935,19.916,19.917
			C496.985,259.578,488.051,268.512,477.069,268.512z"/>
	</g>
</g>
<g>
	<g>
		<circle cx="359.351" cy="141.388" r="13.013"/>
	</g>
</g>
<g>
	<g>
		<circle cx="414.405" cy="160.407" r="13.013"/>
	</g>
</g>
<g>
	<g>
		<circle cx="298.291" cy="154.401" r="13.013"/>
	</g>
</g>
</g>
<g id="sunny">
<g>
	<g>
		<path d="M454.883,253.226l-24.537-35.412l6.78-42.551c0.494-3.097-0.99-6.175-3.721-7.717l-37.51-21.199l-12.352-41.276
			c-0.898-3-3.564-5.129-6.689-5.339l-42.99-2.893L304.818,65.01c-2.114-2.317-5.444-3.076-8.354-1.903l-39.964,16.114
			l-39.965-16.114c-2.909-1.174-6.241-0.413-8.354,1.903l-29.044,31.829l-42.989,2.893c-3.125,0.21-5.791,2.338-6.689,5.339
			l-12.353,41.276l-37.51,21.199c-2.731,1.544-4.214,4.621-3.721,7.717l6.78,42.551L58.12,253.226c-1.782,2.572-1.782,5.981,0,8.552
			l24.537,35.412l-6.78,42.551c-0.494,3.097,0.99,6.175,3.721,7.717l37.51,21.199l12.353,41.276c0.898,3,3.564,5.129,6.689,5.339
			l42.99,2.893l29.045,31.829c2.113,2.317,5.445,3.075,8.354,1.903l39.965-16.114l39.965,16.114
			c0.911,0.367,1.863,0.545,2.806,0.545c2.069,0,4.096-0.856,5.548-2.448l29.044-31.829l42.99-2.894
			c3.125-0.21,5.791-2.338,6.689-5.339l12.352-41.276l37.51-21.199c2.729-1.542,4.213-4.62,3.719-7.716l-6.78-42.551l24.537-35.412
			C456.665,259.206,456.665,255.798,454.883,253.226z M416.284,291.116c-1.103,1.591-1.548,3.546-1.243,5.458l6.434,40.377
			l-35.6,20.12c-1.689,0.954-2.942,2.525-3.499,4.384l-11.727,39.184l-40.804,2.747c-1.931,0.13-3.737,1.001-5.042,2.431
			l-27.561,30.203l-37.935-15.295c-1.802-0.727-3.814-0.727-5.615,0l-37.935,15.295l-27.561-30.204
			c-1.304-1.43-3.11-2.301-5.042-2.431l-40.803-2.746l-11.727-39.184c-0.557-1.858-1.81-3.43-3.499-4.384l-35.601-20.12
			l6.435-40.377c0.304-1.911-0.141-3.866-1.243-5.458l-23.292-33.615l23.292-33.615c1.103-1.591,1.548-3.546,1.243-5.458
			l-6.434-40.377l35.601-20.12c1.689-0.954,2.942-2.525,3.499-4.384l11.727-39.184l40.804-2.747c1.931-0.13,3.737-1.001,5.042-2.431
			l27.561-30.203l37.935,15.295c1.802,0.727,3.814,0.727,5.615,0l37.935-15.295l27.561,30.204c1.304,1.43,3.11,2.3,5.042,2.431
			l40.803,2.746l11.727,39.184c0.557,1.858,1.81,3.43,3.499,4.384l35.601,20.12l-6.435,40.377c-0.304,1.911,0.141,3.866,1.243,5.458
			l23.291,33.615L416.284,291.116z"/>
	</g>
</g>
<g>
	<g>
		<path d="M400.121,254.244c-1.695-76.178-63.364-138.214-139.533-140.343c-26.948-0.753-52.301,5.966-74.146,18.224
			c-4.357,2.445-5.214,8.349-1.681,11.882l0.001,0.001c2.36,2.36,6.009,2.906,8.917,1.271
			c19.958-11.218,43.188-17.272,67.874-16.321c67.096,2.586,121.319,57.135,123.517,124.246
			c2.435,74.313-58.532,135.289-132.842,132.868c-67.55-2.199-122.308-57.128-124.311-124.684
			c-1.029-34.721,11.785-66.502,33.317-90.235c2.689-2.964,2.584-7.512-0.246-10.342c-3.033-3.033-7.992-2.914-10.875,0.262
			c-23.735,26.161-37.984,61.078-37.243,99.267c1.488,76.655,63.741,139.087,140.392,140.783
			C335.038,402.933,401.941,336.023,400.121,254.244z"/>
	</g>
</g>
<g>
	<g>
		<path d="M504.492,54.78c-16.823,0-28.643-3.643-36.136-11.135c-7.492-7.493-11.135-19.313-11.135-36.136
			c0-4.147-3.362-7.508-7.508-7.508s-7.508,3.362-7.508,7.508c0,16.823-3.643,28.643-11.135,36.136
			c-7.493,7.492-19.313,11.135-36.137,11.135c-4.147,0-7.508,3.362-7.508,7.508c0,4.146,3.362,7.508,7.508,7.508
			c16.823,0,28.643,3.643,36.137,11.135c7.492,7.493,11.135,19.313,11.135,36.137c0,4.147,3.362,7.508,7.508,7.508
			s7.508-3.362,7.508-7.508c0-16.823,3.643-28.643,11.135-36.137c7.493-7.492,19.313-11.135,36.136-11.135
			c4.147,0,7.508-3.362,7.508-7.508C512,58.142,508.639,54.78,504.492,54.78z M457.738,70.314
			c-3.165,3.165-5.837,6.773-8.026,10.851c-2.188-4.077-4.86-7.685-8.026-10.851s-6.773-5.837-10.851-8.026
			c4.078-2.188,7.685-4.86,10.851-8.026s5.837-6.773,8.026-10.851c2.188,4.077,4.86,7.685,8.026,10.851
			c3.165,3.165,6.773,5.837,10.851,8.026C464.511,64.477,460.902,67.148,457.738,70.314z"/>
	</g>
</g>
<g>
	<g>
		<path d="M117.068,442.204c-16.823,0-28.643-3.643-36.137-11.135c-7.492-7.493-11.135-19.313-11.135-36.137
			c0-4.147-3.362-7.508-7.508-7.508c-4.147,0-7.508,3.362-7.508,7.508c0,16.823-3.643,28.643-11.135,36.137
			c-7.493,7.493-19.313,11.135-36.136,11.135c-4.147,0-7.508,3.362-7.508,7.508s3.362,7.508,7.508,7.508
			c16.823,0,28.643,3.643,36.136,11.135c7.492,7.493,11.135,19.313,11.135,36.137c0,4.147,3.362,7.508,7.508,7.508
			c4.146,0,7.508-3.362,7.508-7.508c0-16.823,3.643-28.643,11.135-36.136c7.493-7.492,19.313-11.135,36.137-11.135
			c4.147,0,7.508-3.362,7.508-7.508S121.216,442.204,117.068,442.204z M70.314,457.738c-3.165,3.165-5.837,6.773-8.026,10.851
			c-2.188-4.077-4.86-7.685-8.026-10.851c-3.165-3.165-6.773-5.837-10.851-8.026c4.077-2.188,7.685-4.86,10.851-8.026
			s5.837-6.773,8.026-10.851c2.188,4.078,4.86,7.685,8.026,10.851s6.773,5.837,10.851,8.026
			C77.087,451.9,73.478,454.572,70.314,457.738z"/>
	</g>
</g>
<g>
	<g>
		<path d="M118.79,54.78c-18.687,0-25.968-7.281-25.968-25.968c0-4.147-3.362-7.508-7.508-7.508s-7.508,3.362-7.508,7.508
			c0,18.687-7.281,25.968-25.968,25.968c-4.146,0-7.508,3.362-7.508,7.508c0,4.146,3.362,7.508,7.508,7.508
			c18.687,0,25.968,7.281,25.968,25.968c0,4.146,3.362,7.508,7.508,7.508s7.508-3.362,7.508-7.508
			c0-18.687,7.281-25.968,25.968-25.968c4.147,0,7.508-3.362,7.508-7.508C126.298,58.142,122.936,54.78,118.79,54.78z
			 M85.313,68.296c-1.711-2.294-3.715-4.297-6.008-6.008c2.293-1.711,4.297-3.715,6.008-6.008c1.711,2.294,3.715,4.297,6.008,6.008
			C89.027,63.999,87.024,66.003,85.313,68.296z"/>
	</g>
</g>
<g>
	<g>
		<path d="M353.967,270.015c-14.679,0-19.882-5.203-19.882-19.882c0-4.147-3.362-7.508-7.508-7.508s-7.508,3.362-7.508,7.508
			c0,14.679-5.203,19.882-19.882,19.882c-4.146,0-7.508,3.362-7.508,7.508c0,4.146,3.362,7.508,7.508,7.508
			c14.679,0,19.882,5.203,19.882,19.882c0,4.147,3.362,7.508,7.508,7.508s7.508-3.362,7.508-7.508
			c0-14.679,5.203-19.882,19.882-19.882c4.147,0,7.508-3.362,7.508-7.508S358.114,270.015,353.967,270.015z"/>
	</g>
</g>
<g>
	<g>
		<path d="M478.103,438.199c-14.679,0-19.882-5.203-19.882-19.882c0-4.147-3.362-7.508-7.508-7.508s-7.508,3.362-7.508,7.508
			c0,14.679-5.203,19.882-19.882,19.882c-4.147,0-7.508,3.362-7.508,7.508s3.362,7.508,7.508,7.508
			c14.679,0,19.882,5.203,19.882,19.882c0,4.147,3.362,7.508,7.508,7.508s7.508-3.362,7.508-7.508
			c0-14.679,5.203-19.882,19.882-19.882c4.146,0,7.508-3.362,7.508-7.508S482.249,438.199,478.103,438.199z"/>
	</g>
</g>
</g>
<g id="fog">
	<path d="M504.186,461.501H280.999l-0.746-116.839c66.508-10.24,119.249-62.756,129.805-129.161h58.396
	c13.426,0,24.769-10.987,24.542-24.411c-0.22-13.045-10.9-23.589-23.997-23.589h-19.751c1.249-3.076,1.877-6.468,1.73-10.018
	c-0.538-12.938-11.551-22.982-24.5-22.982h-25.117c-7.846-20.046-19.738-38.078-34.665-53.09
	c-2.927-2.943-7.694-2.941-10.629-0.006c-2.926,2.926-2.924,7.662-0.006,10.596c12.115,12.185,22.022,26.568,29.048,42.499
	h-40.564c-13.426,0-24.769,10.987-24.542,24.411c0.22,13.045,10.9,23.589,23.997,23.589h19.751
	c-1.249,3.076-1.877,6.468-1.73,10.018c0.538,12.938,11.551,22.982,24.5,22.982h8.322c-10.27,58.15-56.42,104.061-114.687,113.983
	l-0.132-20.689l41.767-48.755c5.587-6.521,6.069-16.513,1.122-23.242l-6.102-8.299c-2.728-3.709-6.79-5.905-11.146-6.026
	c-4.496-0.135-8.83,1.953-11.919,5.699l-15.34,18.611l-0.4-33.656c-0.118-9.902-6.938-17.658-15.526-17.658h-11.963
	c-8.587,0-15.409,7.756-15.53,17.656l-0.04,3.232l-16.931-21.139c-3.14-3.92-7.589-6.121-12.167-5.964
	c-4.461,0.125-8.605,2.422-11.369,6.3l-6.272,8.803c-4.932,6.92-4.432,17.2,1.162,23.913l43.131,51.753l-0.168,49.393
	C166.336,317.927,116,260.233,116,191.001c0-14.626,2.261-28.731,6.429-42h57.633c11.508,0,21.322-8.932,21.756-20.431
	c0.456-12.089-9.245-22.069-21.235-22.069h-14.688c0.609-1.977,0.938-4.076,0.938-6.25c0-5.012-1.754-9.616-4.667-13.253
	c24.953-22.66,58.052-36.497,94.334-36.497c23.799,0,46.221,5.965,65.879,16.457c2.933,1.565,6.537,1.067,8.888-1.284l0.006-0.006
	c3.569-3.569,2.665-9.565-1.787-11.942c-21.775-11.628-46.623-18.225-72.986-18.225c-41.907,0-79.976,16.679-107.962,43.73
	c-0.968-0.136-1.949-0.23-2.954-0.23H76.939c-11.508,0-21.322,8.932-21.756,20.431c-0.456,12.089,9.245,22.069,21.235,22.069
	h14.688c-0.609,1.977-0.938,4.076-0.938,6.25c0,10.176,7.193,18.695,16.759,20.763c-3.714,13.051-5.772,26.792-5.907,40.987
	H81.036c-12.883,0-23.991,10.533-24.036,23.417c-0.011,3.026,0.554,5.922,1.59,8.583H45.034
	c-13.147,0-24.253,10.758-24.031,23.903c0.216,12.773,10.674,23.097,23.497,23.097h61c5.012,0,9.798-1.585,13.76-4.454
	c22.56,42.216,64.033,72.851,113.021,80.548l-0.398,116.906h-67.32c3.279-2.002,5.761-3.688,6.98-4.539
	c3.317-2.315,4.201-6.844,1.997-10.236c-3.262-5.021-20.344-30.227-36.337-33.348c-14.859-2.902-29.257,4.248-35.453,16.516
	c-2.849-1.097-5.108-2.21-6.662-3.317c-3.218-2.292-7.72-2.08-10.327,0.889c-2.927,3.335-2.343,8.381,1.143,10.978
	c2.997,2.233,7.26,4.318,12.72,6.252c0.29,5.799,2.286,11.445,5.88,16.387c0.103,0.142,0.214,0.277,0.319,0.417H7.814
	c-4.107,0-7.688,3.165-7.811,7.27c-0.127,4.247,3.278,7.73,7.497,7.73h497c4.219,0,7.623-3.482,7.497-7.73
	C511.874,464.666,508.293,461.501,504.186,461.501z M386,200.501c-4.963,0-9-4.037-9-9s4.037-9,9-9c4.143,0,7.5-3.357,7.5-7.5
	s-3.357-7.5-7.5-7.5h-42c-4.963,0-9-4.037-9-9s4.037-9,9-9h83c4.963,0,9,4.037,9,9s-4.037,9-9,9c-4.143,0-7.5,3.357-7.5,7.5
	s3.357,7.5,7.5,7.5h42c4.963,0,9,4.037,9,9s-4.037,9-9,9H386z M105.167,127.751c0-3.446,2.804-6.25,6.25-6.25
	c4.142,0,7.5-3.357,7.5-7.5s-3.358-7.5-7.5-7.5h-35c-3.446,0-6.25-2.804-6.25-6.25s2.803-6.25,6.25-6.25h69.167
	c3.446,0,6.25,2.804,6.25,6.25s-2.804,6.25-6.25,6.25c-4.142,0-7.5,3.357-7.5,7.5s3.358,7.5,7.5,7.5h35
	c3.446,0,6.25,2.804,6.25,6.25s-2.804,6.25-6.25,6.25h-69.167C107.97,134.001,105.167,131.197,105.167,127.751z M112.076,250.388
	c-1.624,1.979-4.021,3.113-6.576,3.113h-61c-4.687,0-8.5-3.813-8.5-8.5s3.813-8.5,8.5-8.5h36c4.142,0,7.5-3.357,7.5-7.5
	s-3.358-7.5-7.5-7.5c-4.687,0-8.5-3.813-8.5-8.5s3.813-8.5,8.5-8.5h21.093c1.375,15.914,5.157,31.148,10.98,45.34
	C112.4,250.014,112.234,250.195,112.076,250.388z M128.208,459.481c-4.751-0.927-8.86-3.49-11.572-7.219
	c-0.703-0.967-1.277-1.984-1.74-3.031c5.112,1.143,10.763,2.213,16.983,3.204c0.399,0.064,0.796,0.095,1.189,0.095
	c3.622,0,6.81-2.63,7.397-6.321c0.651-4.091-2.136-7.935-6.227-8.586c-6.487-1.034-12.381-2.172-17.58-3.375
	c3.116-4.029,8.267-6.513,13.914-6.513c1.235,0,2.493,0.118,3.758,0.365c5.813,1.134,15.415,11.459,22.306,20.644
	C146.808,454.665,134.034,460.622,128.208,459.481z M265.999,461.501h-19.116l0.627-184.156c0.006-1.764-0.609-3.473-1.738-4.827
	l-44.878-53.851c-1.273-1.527-1.324-4.406-0.47-5.604l5.964-8.369l29.949,37.393c1.98,2.473,5.3,3.435,8.295,2.403
	c2.995-1.031,5.019-3.833,5.058-7l0.296-24.181c0.019-1.525,0.571-2.497,0.888-2.84h11.249c0.316,0.343,0.867,1.313,0.886,2.837
	l0.644,54.161c0.037,3.148,2.037,5.938,5.007,6.985c2.968,1.044,6.276,0.127,8.279-2.304l28.196-34.209l5.692,7.743
	c0.715,0.973,0.657,3.332-0.427,4.599l-43.588,50.882c-1.176,1.371-1.816,3.121-1.805,4.927L265.999,461.501z"/>
</g>

<g id="doubleArrow">
	<path d="M45.53,30.991c0-0.004,0.002-0.008,0.002-0.011c0-0.136-0.056-0.267-0.154-0.361l-6.699-6.426
		c-0.199-0.191-0.516-0.185-0.707,0.016c-0.19,0.199-0.184,0.516,0.016,0.706l5.822,5.586H16.968c-0.276,0-0.5,0.224-0.5,0.5
		s0.224,0.5,0.5,0.5h26.84l-5.82,5.585c-0.2,0.19-0.206,0.507-0.015,0.706c0.098,0.103,0.229,0.154,0.36,0.154
		c0.125,0,0.249-0.046,0.346-0.14l6.699-6.427c0.046-0.043,0.079-0.104,0.105-0.17c0.029-0.064,0.049-0.134,0.049-0.209
		C45.532,30.997,45.53,30.994,45.53,30.991z"/>
	<path d="M4.192,17.501h26.84c0.276,0,0.5-0.224,0.5-0.5s-0.224-0.5-0.5-0.5H4.19l5.823-5.586
		c0.199-0.19,0.206-0.507,0.016-0.706c-0.192-0.199-0.508-0.206-0.707-0.016l-6.699,6.426c-0.05,0.048-0.088,0.114-0.114,0.186
		c-0.026,0.06-0.04,0.126-0.04,0.196c0,0.003,0.002,0.006,0.002,0.009s-0.002,0.007-0.002,0.01c0,0.136,0.056,0.267,0.154,0.36
		l6.699,6.427c0.097,0.094,0.221,0.14,0.346,0.14c0.132,0,0.263-0.052,0.36-0.154c0.191-0.199,0.186-0.516-0.015-0.706L4.192,17.501
		z"/>
</g>

<g id="sun">
	<path d="M45.876,23.453h-7.149c-0.085-2.286-0.68-4.442-1.692-6.35l6.183-3.568c0.262-0.151,0.351-0.484,0.2-0.746
		c-0.149-0.26-0.482-0.352-0.745-0.2l-6.192,3.574c-1.183-1.875-2.771-3.463-4.646-4.645l3.575-6.191
		c0.15-0.261,0.062-0.595-0.2-0.746c-0.263-0.153-0.595-0.06-0.745,0.2l-3.57,6.183c-1.907-1.014-4.064-1.608-6.351-1.692
		l0.002-7.147c0-0.301-0.244-0.545-0.546-0.546c-0.302,0-0.546,0.245-0.546,0.546l-0.002,7.148c-2.286,0.085-4.443,0.68-6.351,1.694
		l-3.566-6.185c-0.149-0.26-0.482-0.353-0.745-0.2c-0.262,0.15-0.351,0.484-0.2,0.745l3.572,6.195
		c-1.875,1.182-3.462,2.771-4.644,4.646l-6.19-3.578c-0.264-0.151-0.596-0.06-0.746,0.2c-0.15,0.261-0.062,0.595,0.199,0.746
		l6.182,3.573c-1.013,1.908-1.607,4.064-1.691,6.35l-7.147-0.004h0c-0.301,0-0.545,0.244-0.546,0.546
		c0,0.301,0.244,0.546,0.545,0.546l7.149,0.004c0.085,2.286,0.68,4.442,1.694,6.35l-6.185,3.565c-0.261,0.15-0.351,0.484-0.2,0.745
		c0.101,0.176,0.284,0.273,0.474,0.273c0.092,0,0.186-0.023,0.271-0.073l6.195-3.571c1.182,1.875,2.77,3.461,4.645,4.643l-3.58,6.19
		c-0.15,0.261-0.062,0.595,0.199,0.746c0.086,0.05,0.181,0.073,0.272,0.073c0.188,0,0.372-0.098,0.474-0.272l3.575-6.183
		c1.907,1.013,4.063,1.606,6.348,1.691l-0.004,7.149c0,0.301,0.244,0.546,0.546,0.546c0.301,0,0.546-0.244,0.546-0.546l0.004-7.149
		c2.286-0.085,4.442-0.68,6.35-1.693l3.565,6.184c0.101,0.176,0.284,0.273,0.474,0.273c0.092,0,0.186-0.023,0.271-0.073
		c0.262-0.15,0.351-0.484,0.2-0.745l-3.571-6.193c1.875-1.182,3.463-2.771,4.645-4.646l6.188,3.579
		c0.086,0.05,0.181,0.073,0.272,0.073c0.188,0,0.372-0.098,0.474-0.272c0.15-0.261,0.062-0.595-0.199-0.746l-6.181-3.574
		c1.013-1.906,1.606-4.062,1.691-6.347h7.149c0.302,0,0.546-0.244,0.546-0.546S46.178,23.453,45.876,23.453z M24.001,37.662
		c-7.535,0-13.665-6.129-13.665-13.663c0-7.534,6.13-13.663,13.665-13.663c7.533,0,13.661,6.129,13.661,13.663
		C37.662,31.533,31.534,37.662,24.001,37.662z"/>
</g>

<g id="waterDrop">
	<path d="M35.675,19.147C29.858,11.14,24.483,2.612,24.43,2.527c-0.182-0.291-0.678-0.291-0.859,0
		c-0.054,0.085-5.429,8.613-11.245,16.621c-3.323,4.574-4.855,13.046-1.667,19.304c1.687,3.311,5.369,7.256,13.335,7.256h0.014
		c7.966,0,11.648-3.945,13.335-7.256C40.53,32.193,38.998,23.722,35.675,19.147z M36.45,37.997c-2.236,4.39-6.539,6.71-12.443,6.71
		h-0.014c-5.904,0-10.207-2.32-12.443-6.71c-3.015-5.916-1.563-13.931,1.584-18.262C18.036,12.986,22.624,5.872,24,3.715
		c1.376,2.157,5.964,9.271,10.866,16.021C38.013,24.066,39.465,32.081,36.45,37.997z"/>
	<path d="M26.207,13.435c-0.091-0.146-0.259-0.234-0.431-0.234c-0.276,0-0.496,0.224-0.496,0.5
		c0,0.115,0.039,0.22,0.104,0.305c0.303,0.479,3.384,5.334,6.708,9.909c1.547,2.129,2.233,5.472,1.709,8.318
		c-0.281,1.525-1.047,3.625-3.098,4.961c-0.231,0.151-0.296,0.461-0.146,0.692c0.096,0.147,0.256,0.228,0.419,0.228
		c0.094,0,0.188-0.027,0.273-0.082c1.857-1.211,3.08-3.153,3.534-5.617c0.571-3.099-0.186-6.75-1.884-9.087
		C29.438,18.561,26.239,13.485,26.207,13.435z"/>
</g>

<g id="sensor">
	<path d="M38.292,10.718C34.47,6.902,29.394,4.801,24,4.801c-5.395,0-10.47,2.102-14.291,5.917
		c-0.195,0.195-0.195,0.512,0,0.708c0.195,0.195,0.512,0.195,0.707,0C14.048,7.798,18.873,5.801,24,5.801s9.952,1.998,13.585,5.625
		c0.098,0.097,0.226,0.146,0.354,0.146s0.256-0.049,0.354-0.147C38.487,11.23,38.487,10.914,38.292,10.718z"/>
	<path d="M24,11.369c-3.643,0-7.067,1.419-9.645,3.996c-0.195,0.195-0.195,0.512,0,0.707s0.512,0.195,0.707,0
		c2.388-2.388,5.563-3.703,8.938-3.703c3.376,0,6.55,1.315,8.937,3.703c0.098,0.098,0.226,0.146,0.354,0.146
		s0.256-0.049,0.354-0.146c0.195-0.195,0.195-0.512,0-0.707C31.067,12.788,27.643,11.369,24,11.369z"/>
	<path d="M26.338,30.563h-4.676c-0.276,0-0.5,0.224-0.5,0.5s0.224,0.5,0.5,0.5h4.676c0.276,0,0.5-0.224,0.5-0.5
		S26.614,30.563,26.338,30.563z"/>
	<path d="M29.757,21.162H18.07c-0.921,0-1.67,0.748-1.67,1.668v15.193c0,2.854,2.322,5.176,5.176,5.176h4.675
		c2.854,0,5.175-2.322,5.175-5.176V22.83C31.426,21.91,30.677,21.162,29.757,21.162z M30.426,38.023
		c0,2.303-1.873,4.176-4.175,4.176h-4.675c-2.303,0-4.176-1.873-4.176-4.176V22.83c0-0.368,0.301-0.668,0.67-0.668h11.687
		c0.369,0,0.669,0.3,0.669,0.668V38.023z"/>
	<path d="M26.424,25.838H21.75c-0.276,0-0.5,0.224-0.5,0.5s0.224,0.5,0.5,0.5h4.674c0.276,0,0.5-0.224,0.5-0.5
		S26.7,25.838,26.424,25.838z"/>
</g>

<g id="clock">
	<path d="M16.704,10.936h14.282c0.277,0,0.5-0.224,0.5-0.5c0-3.106-3.426-5.633-7.64-5.633s-7.642,2.527-7.642,5.633
		C16.204,10.712,16.428,10.936,16.704,10.936z M23.845,5.803c3.42,0,6.245,1.813,6.603,4.133H17.242
		C17.601,7.615,20.425,5.803,23.845,5.803z"/>
	<path d="M24.5,26.841v-7.88c0-0.276-0.224-0.5-0.5-0.5s-0.5,0.224-0.5,0.5v8.122c0,0.011,0.005,0.02,0.006,0.03
		c0.002,0.033,0.011,0.064,0.019,0.096c0.009,0.032,0.015,0.063,0.029,0.092c0.013,0.026,0.032,0.05,0.05,0.074
		c0.021,0.028,0.041,0.056,0.066,0.078c0.008,0.007,0.012,0.017,0.02,0.023l4.559,3.59c0.092,0.072,0.202,0.107,0.311,0.107
		c0.146,0,0.293-0.066,0.393-0.189c0.17-0.219,0.133-0.532-0.084-0.702L24.5,26.841z"/>
	<path d="M33.087,39.184c3.677-2.768,6.069-7.154,6.069-12.101c0-8.359-6.799-15.158-15.156-15.158
		c-8.358,0-15.157,6.8-15.157,15.158c0,4.946,2.394,9.334,6.071,12.102l-2.056,3.378c-0.144,0.236-0.069,0.543,0.167,0.688
		c0.081,0.049,0.171,0.072,0.259,0.072c0.169,0,0.334-0.086,0.428-0.24l2.018-3.314c2.381,1.557,5.219,2.471,8.27,2.471
		c3.051,0,5.889-0.914,8.27-2.471l2.02,3.315c0.094,0.153,0.259,0.239,0.428,0.239c0.088,0,0.178-0.023,0.26-0.072
		c0.236-0.145,0.312-0.453,0.168-0.688L33.087,39.184z M9.843,27.083c0-7.807,6.351-14.158,14.157-14.158
		c7.807,0,14.156,6.351,14.156,14.158c0,7.806-6.35,14.155-14.156,14.155C16.194,41.238,9.843,34.889,9.843,27.083z"/>
</g>

<g id="refresh">
	<path d="M44.286,35.399l-2.791-6.742c-0.056-0.135-0.168-0.238-0.307-0.284c-0.14-0.046-0.291-0.027-0.415,0.049
		l-6.654,4.053c-0.236,0.144-0.311,0.451-0.167,0.687c0.144,0.236,0.452,0.311,0.687,0.167l5.457-3.323
		c-0.441,2.123-2.435,4.689-2.457,4.717c-3.424,4.331-8.566,6.814-14.107,6.814c-7.961,0-15.05-5.3-17.239-12.891
		c-0.076-0.261-0.164-0.61-0.172-0.72c-0.021-0.277-0.291-0.484-0.537-0.461c-0.275,0.021-0.481,0.262-0.461,0.537
		c0.021,0.263,0.166,0.774,0.21,0.923c2.312,8.014,9.795,13.611,18.199,13.611c5.849,0,11.277-2.622,14.894-7.195
		c0.097-0.124,2.133-2.74,2.644-5.102l2.294,5.543c0.08,0.192,0.266,0.309,0.462,0.309c0.063,0,0.129-0.012,0.191-0.038
		C44.271,35.947,44.392,35.654,44.286,35.399z"/>
	<path d="M5.658,18.817c0.016,0.047,0.041,0.087,0.068,0.126c0.012,0.017,0.019,0.036,0.032,0.051
		c0.046,0.051,0.101,0.094,0.165,0.123c0.001,0,0.001,0.001,0.002,0.001c0.014,0.006,0.03,0.004,0.044,0.009
		c0.046,0.016,0.093,0.032,0.145,0.034c0.003,0,0.005-0.001,0.008-0.001c0.002,0,0.004,0.001,0.007,0.001
		c0.017,0,0.033-0.01,0.05-0.012c0.053-0.006,0.104-0.014,0.151-0.035c0.006-0.003,0.013-0.001,0.019-0.004l7.434-3.646
		c0.248-0.122,0.351-0.422,0.229-0.669c-0.122-0.25-0.424-0.35-0.669-0.229l-6.582,3.229c0.52-2.08,2.394-4.488,2.415-4.514
		c3.427-4.332,8.569-6.816,14.107-6.816c7.961,0,15.05,5.301,17.239,12.894c0.076,0.26,0.165,0.609,0.175,0.721
		c0.021,0.261,0.24,0.458,0.497,0.458c0.015,0,0.029-0.001,0.043-0.002c0.275-0.023,0.479-0.265,0.456-0.54
		c-0.022-0.268-0.181-0.813-0.211-0.917c-2.312-8.016-9.796-13.613-18.199-13.613c-5.846,0-11.274,2.623-14.894,7.197
		c-0.082,0.104-1.546,1.984-2.309,3.988L4.657,11.6c-0.075-0.266-0.351-0.42-0.617-0.346c-0.266,0.075-0.421,0.352-0.346,0.617
		l1.953,6.926C5.649,18.804,5.656,18.81,5.658,18.817z"/>
</g>

<g id="serverRack">
	<path d="M6.5,5.874h35c0.276,0,0.5-0.224,0.5-0.5s-0.224-0.5-0.5-0.5h-35c-0.276,0-0.5,0.224-0.5,0.5
		S6.224,5.874,6.5,5.874z"/>
	<path d="M9.916,37.343h-0.25c-0.276,0-0.5,0.224-0.5,0.5v0.25c0,0.276,0.224,0.5,0.5,0.5h0.25
		c0.276,0,0.5-0.224,0.5-0.5v-0.25C10.416,37.566,10.192,37.343,9.916,37.343z"/>
	<path d="M13.791,37.343h-0.25c-0.276,0-0.5,0.224-0.5,0.5v0.25c0,0.276,0.224,0.5,0.5,0.5h0.25
		c0.276,0,0.5-0.224,0.5-0.5v-0.25C14.291,37.566,14.067,37.343,13.791,37.343z"/>
	<path d="M37.916,37.343h-0.25c-0.276,0-0.5,0.224-0.5,0.5v0.25c0,0.276,0.224,0.5,0.5,0.5h0.25
		c0.276,0,0.5-0.224,0.5-0.5v-0.25C38.416,37.566,38.192,37.343,37.916,37.343z"/>
	<path d="M27.791,37.343h-0.25c-0.276,0-0.5,0.224-0.5,0.5v0.25c0,0.276,0.224,0.5,0.5,0.5h0.25
		c0.276,0,0.5-0.224,0.5-0.5v-0.25C28.291,37.566,28.067,37.343,27.791,37.343z"/>
	<path d="M23.791,37.343h-0.25c-0.276,0-0.5,0.224-0.5,0.5v0.25c0,0.276,0.224,0.5,0.5,0.5h0.25
		c0.276,0,0.5-0.224,0.5-0.5v-0.25C24.291,37.566,24.067,37.343,23.791,37.343z"/>
	<path d="M13.75,25.593H13.5c-0.276,0-0.5,0.224-0.5,0.5v0.25c0,0.276,0.224,0.5,0.5,0.5h0.25
		c0.276,0,0.5-0.224,0.5-0.5v-0.25C14.25,25.816,14.026,25.593,13.75,25.593z"/>
	<path d="M9.875,25.593h-0.25c-0.276,0-0.5,0.224-0.5,0.5v0.25c0,0.276,0.224,0.5,0.5,0.5h0.25
		c0.276,0,0.5-0.224,0.5-0.5v-0.25C10.375,25.816,10.151,25.593,9.875,25.593z"/>
	<path d="M23.75,25.593H23.5c-0.276,0-0.5,0.224-0.5,0.5v0.25c0,0.276,0.224,0.5,0.5,0.5h0.25
		c0.276,0,0.5-0.224,0.5-0.5v-0.25C24.25,25.816,24.026,25.593,23.75,25.593z"/>
	<path d="M27.75,25.593H27.5c-0.276,0-0.5,0.224-0.5,0.5v0.25c0,0.276,0.224,0.5,0.5,0.5h0.25
		c0.276,0,0.5-0.224,0.5-0.5v-0.25C28.25,25.816,28.026,25.593,27.75,25.593z"/>
	<path d="M37.875,25.593h-0.25c-0.276,0-0.5,0.224-0.5,0.5v0.25c0,0.276,0.224,0.5,0.5,0.5h0.25
		c0.276,0,0.5-0.224,0.5-0.5v-0.25C38.375,25.816,38.151,25.593,37.875,25.593z"/>
	<path d="M27.875,13.718h-0.25c-0.276,0-0.5,0.224-0.5,0.5v0.25c0,0.276,0.224,0.5,0.5,0.5h0.25
		c0.276,0,0.5-0.224,0.5-0.5v-0.25C28.375,13.941,28.151,13.718,27.875,13.718z"/>
	<path d="M38,13.718h-0.25c-0.276,0-0.5,0.224-0.5,0.5v0.25c0,0.276,0.224,0.5,0.5,0.5H38c0.276,0,0.5-0.224,0.5-0.5
		v-0.25C38.5,13.941,38.276,13.718,38,13.718z"/>
	<path d="M23.875,13.718h-0.25c-0.276,0-0.5,0.224-0.5,0.5v0.25c0,0.276,0.224,0.5,0.5,0.5h0.25
		c0.276,0,0.5-0.224,0.5-0.5v-0.25C24.375,13.941,24.151,13.718,23.875,13.718z"/>
	<path d="M10,13.718H9.75c-0.276,0-0.5,0.224-0.5,0.5v0.25c0,0.276,0.224,0.5,0.5,0.5H10c0.276,0,0.5-0.224,0.5-0.5
		v-0.25C10.5,13.941,10.276,13.718,10,13.718z"/>
	<path d="M13.875,13.718h-0.25c-0.276,0-0.5,0.224-0.5,0.5v0.25c0,0.276,0.224,0.5,0.5,0.5h0.25
		c0.276,0,0.5-0.224,0.5-0.5v-0.25C14.375,13.941,14.151,13.718,13.875,13.718z"/>
	<path d="M41.5,8.208c-0.276,0-0.5,0.224-0.5,0.5v2.354H7V8.708c0-0.276-0.224-0.5-0.5-0.5S6,8.432,6,8.708v2.854
		v3.064v2.498c0,0.276,0.224,0.5,0.5,0.5h35c0.276,0,0.5-0.224,0.5-0.5v-2.498v-3.064V8.708C42,8.432,41.776,8.208,41.5,8.208z
		 M41,16.624H7v-1.998v-2.564h34v2.564V16.624z"/>
	<path d="M41.5,20.208c-0.276,0-0.5,0.224-0.5,0.5v2.104H7v-2.104c0-0.276-0.224-0.5-0.5-0.5S6,20.432,6,20.708
		v2.604v3.314v2.248c0,0.276,0.224,0.5,0.5,0.5h35c0.276,0,0.5-0.224,0.5-0.5v-2.248v-3.314v-2.604
		C42,20.432,41.776,20.208,41.5,20.208z M41,28.374H7v-1.748v-2.814h34v2.814V28.374z"/>
	<path d="M41.5,32.208c-0.276,0-0.5,0.224-0.5,0.5v1.854H7v-1.854c0-0.276-0.224-0.5-0.5-0.5S6,32.432,6,32.708
		v2.354v5.563v2.002c0,0.276,0.224,0.5,0.5,0.5s0.5-0.224,0.5-0.5v-1.502h34v1.502c0,0.276,0.224,0.5,0.5,0.5s0.5-0.224,0.5-0.5
		v-2.002v-5.563v-2.354C42,32.432,41.776,32.208,41.5,32.208z M7,40.124v-4.563h34v4.563H7z"/>
</g>
<g id="sdcard">
	<path d="M16.691,19.846c0.276,0,0.5-0.224,0.5-0.5v-9.309c0-0.276-0.224-0.5-0.5-0.5s-0.5,0.224-0.5,0.5v9.309
		C16.191,19.622,16.415,19.846,16.691,19.846z"/>
	<path d="M26,19.846c0.276,0,0.5-0.224,0.5-0.5v-9.309c0-0.276-0.224-0.5-0.5-0.5s-0.5,0.224-0.5,0.5v9.309
		C25.5,19.622,25.724,19.846,26,19.846z"/>
	<path d="M21.346,19.846c0.276,0,0.5-0.224,0.5-0.5v-9.309c0-0.276-0.224-0.5-0.5-0.5s-0.5,0.224-0.5,0.5v9.309
		C20.846,19.622,21.069,19.846,21.346,19.846z"/>
	<path d="M30.524,30.908H16.146c-0.276,0-0.5,0.224-0.5,0.5v4.443c0,0.276,0.224,0.5,0.5,0.5h14.379
		c0.276,0,0.5-0.224,0.5-0.5v-4.443C31.024,31.132,30.801,30.908,30.524,30.908z M30.024,35.352H16.646v-3.443h13.379V35.352z"/>
	<path d="M38.316,14.338l-9.309-9.309c-0.094-0.094-0.221-0.146-0.354-0.146H10.037c-0.276,0-0.5,0.224-0.5,0.5
		v16.289c0,0.276,0.224,0.5,0.5,0.5h1.827v5.982h-1.827c-0.276,0-0.5,0.224-0.5,0.5v13.963c0,0.276,0.224,0.5,0.5,0.5h27.926
		c0.276,0,0.5-0.224,0.5-0.5V14.691C38.463,14.559,38.41,14.432,38.316,14.338z M37.463,42.117H10.537V29.154h1.827
		c0.276,0,0.5-0.224,0.5-0.5v-6.982c0-0.276-0.224-0.5-0.5-0.5h-1.827V5.883h17.91l9.016,9.016V42.117z"/>
	<path d="M30.654,19.846c0.276,0,0.5-0.224,0.5-0.5v-4.654c0-0.276-0.224-0.5-0.5-0.5s-0.5,0.224-0.5,0.5v4.654
		C30.154,19.622,30.378,19.846,30.654,19.846z"/>
</g>
<g id="computer">
	<path d="M42.419,7.231H11.894c-0.912,0-1.654,0.742-1.654,1.654v2.283H4.786c-0.505,0-0.857,0.537-0.857,1.305
		v26.988c0,0.77,0.353,1.307,0.857,1.307h11.908c0.504,0,0.855-0.537,0.855-1.307V12.474c0-0.768-0.352-1.305-0.855-1.305h-5.455
		V8.886c0-0.361,0.294-0.654,0.654-0.654h30.525c0.36,0,0.654,0.293,0.654,0.654v19.732c0,0.36-0.294,0.654-0.654,0.654H18.366
		c-0.276,0-0.5,0.224-0.5,0.5s0.224,0.5,0.5,0.5h24.053c0.912,0,1.654-0.742,1.654-1.654V8.886
		C44.073,7.974,43.331,7.231,42.419,7.231z M16.511,39.769H4.968c-0.02-0.067-0.039-0.169-0.039-0.307V28.886H16.55v10.576
		C16.55,39.6,16.53,39.701,16.511,39.769z M16.55,12.474v15.412H4.929V12.474c0-0.137,0.02-0.238,0.039-0.305h11.544
		C16.53,12.235,16.55,12.337,16.55,12.474z"/>
	<path d="M31.337,33.376c0.276,0,0.5-0.224,0.5-0.5s-0.224-0.5-0.5-0.5h-8.363c-0.276,0-0.5,0.224-0.5,0.5
		s0.224,0.5,0.5,0.5H31.337z"/>
	<path d="M39.755,35.415H18.366c-0.276,0-0.5,0.224-0.5,0.5s0.224,0.5,0.5,0.5h21.389c0.276,0,0.5-0.224,0.5-0.5
		S40.031,35.415,39.755,35.415z"/>
	<path d="M10.741,30.265c-1.442,0-2.615,1.174-2.615,2.617c0,1.44,1.173,2.613,2.615,2.613
		c1.441,0,2.613-1.173,2.613-2.613C13.354,31.438,12.183,30.265,10.741,30.265z M10.741,34.495c-0.891,0-1.615-0.724-1.615-1.613
		c0-0.892,0.725-1.617,1.615-1.617c0.89,0,1.613,0.726,1.613,1.617C12.354,33.771,11.631,34.495,10.741,34.495z"/>
	<path d="M12.427,37.015H9.054c-0.276,0-0.5,0.224-0.5,0.5s0.224,0.5,0.5,0.5h3.373c0.276,0,0.5-0.224,0.5-0.5
		S12.703,37.015,12.427,37.015z"/>
	<path d="M6.313,18.04v1.074c0,0.721,0.586,1.307,1.307,1.307h6.242c0.721,0,1.307-0.586,1.307-1.307V18.04
		c0-0.719-0.586-1.305-1.307-1.305H7.62C6.899,16.735,6.313,17.321,6.313,18.04z M14.169,18.04v1.074
		c0,0.169-0.138,0.307-0.307,0.307H7.62c-0.169,0-0.307-0.138-0.307-0.307V18.04c0-0.168,0.138-0.305,0.307-0.305h6.242
		C14.031,17.735,14.169,17.872,14.169,18.04z"/>
</g>
<g id="thermometer">
	<path d="M16,30 C18.2091391,30 20,28.2091391 20,26 C20,24.5194342 19.1956017,23.2267458 18,22.5351287 L18,4.00494659 C18,2.89764516 17.1122704,2 16,2 C14.8954305,2 14,2.89702623 14,4.00494659 L14,22.5351287 C12.8043983,23.2267458 12,24.5194342 12,26 C12,28.2091391 13.7908609,30 16,30 Z M16,29 C14.3431457,29 13,27.6568543 13,26 C13,24.6937824 13.834806,23.5825442 15,23.1707057 L15,7.99339768 C15,7.44494629 15.4477153,7 16,7 C16.5561352,7 17,7.44475929 17,7.99339768 L17,23.1707057 C18.165194,23.5825442 19,24.6937824 19,26 C19,27.6568543 17.6568543,29 16,29 Z M16,32 C12.6862913,32 10,29.3137087 10,26 C10,24.2229949 10.7725059,22.6264183 12,21.5277869 L12,4.00552025 C12,1.78708529 13.790861,0 16,0 C18.2046438,0 20,1.7933325 20,4.00552025 L20,21.5277869 C21.2274941,22.6264183 22,24.2229949 22,26 C22,29.3137087 19.3137087,32 16,32 Z M16,32"/>
</g>

<!--Paste your icons above-->

</svg>