<?xml version="1.0" encoding="iso-8859-1"?>
<!-- Generator: Adobe Illustrator 19.0.0, SVG Export Plug-In . SVG Version: 6.00 Build 0)  -->
<svg version="1.1" id="Capa_1" xmlns="http://www.w3.org/2000/svg" xmlns:xlink="http://www.w3.org/1999/xlink" x="0px" y="0px"
	 viewBox="0 0 512 512" style="enable-background:new 0 0 512 512;" xml:space="preserve">
<g>
	<g>
		<path d="M121.5,129.25c-4.225,0-8.391,0.673-12.354,1.979C100.814,109.927,79.958,95.25,56.5,95.25
			c-31.154,0-56.5,25.346-56.5,56.5c0,23.468,14.382,43.639,34.795,52.164c4.929,2.058,10.366-1.589,10.366-6.93v-0.02
			c0-3.067-1.892-5.769-4.718-6.96C25.512,183.716,15,168.942,15,151.75c0-22.883,18.617-41.5,41.5-41.5
			c19.44,0,36.445,13.716,40.553,32.658c0.362,1.67,1.139,3.253,2.425,4.378c2.593,2.269,6.233,2.461,8.981,0.729
			c5.47-3.45,12.128-4.622,18.632-3.128c10.532,2.419,18.291,11.723,18.873,22.513c0.762,14.119-10.507,25.85-24.464,25.85H81.315
			c-4.139,0-7.494,3.355-7.494,7.494v0.013c0,4.139,3.355,7.494,7.494,7.494h39.444c21.57,0,39.72-16.984,40.23-38.548
			C161.514,147.489,143.597,129.25,121.5,129.25z"/>
	</g>
</g>
<g>
	<g>
		<path d="M472.5,258.25c-4.225,0-8.391,0.673-12.354,1.979c-8.333-21.302-29.188-35.979-52.646-35.979
			c-31.154,0-56.5,25.346-56.5,56.5c0,2.881,0.219,5.711,0.637,8.477c-8.964,0.959-17.565,3.502-25.531,7.547
			c-1.426-56.546-47.869-102.108-104.753-102.108c-20.598,0-39.972,6.021-56.327,16.472c-4.048,2.587-4.69,8.244-1.292,11.641
			c2.491,2.491,6.373,2.899,9.342,1.002c14.016-8.956,30.623-14.115,48.277-14.115c49.508,0,89.787,40.278,89.787,89.787
			c0,3.391-0.198,6.845-0.588,10.271c-0.28,2.455,0.479,4.97,2.295,6.645c2.807,2.589,6.946,2.646,9.789,0.385
			c9.674-7.692,21.138-12.083,33.353-12.836c8.864,19.63,28.611,33.332,51.511,33.332h5.926c3.982,8.132,6.074,17.138,6.074,26.27
			c0,31.222-24.377,57.385-55.498,59.563c-0.385,0.027-232.026,0.168-232.026,0.168c-35.552,0-64.476-28.924-64.476-64.476
			c0-33.317,24.965-60.9,58.072-64.16c3.467-0.341,6.264-2.987,6.697-6.444c1.629-13.002,6.029-25.068,12.549-35.654
			c1.816-2.949,1.363-6.757-1.086-9.206l-0.001-0.001c-3.417-3.417-9.141-2.764-11.677,1.349
			c-6.638,10.766-11.399,22.845-13.772,35.82c-17.283,3.005-33.111,11.669-45.056,24.772C59.861,319.911,52.5,338.92,52.5,358.774
			c0,43.823,35.653,79.476,79.476,79.476c0,0,234.095-0.119,234.818-0.347C404.902,434.34,434.5,402,434.5,363.52
			c0-9.003-1.63-17.912-4.761-26.27h42.02c21.57,0,39.72-16.984,40.23-38.548C512.514,276.489,494.597,258.25,472.5,258.25z
			 M472.5,322.25h-65c-22.883,0-41.5-18.617-41.5-41.5s18.617-41.5,41.5-41.5c19.542,0,36.623,13.86,40.616,32.956
			c0.503,2.405,2.152,4.411,4.414,5.37c2.261,0.958,4.85,0.749,6.928-0.562c3.905-2.463,8.415-3.765,13.042-3.765
			c13.509,0,24.5,10.991,24.5,24.5C497,311.258,486.009,322.25,472.5,322.25z"/>
	</g>
</g>
<g>
	<g>
		<path d="M405.031,113.995c-5.298,0-10.515,0.922-15.436,2.704c-9.326-25.364-33.854-42.949-61.503-42.949
			c-36.117,0-65.5,29.383-65.5,65.5c0,28.064,17.743,52.056,42.599,61.361c4.893,1.832,10.112-1.804,10.112-7.029v-0.009
			c0-3.151-1.985-5.928-4.934-7.037c-19.129-7.193-32.777-25.674-32.777-47.286c0-27.846,22.654-50.5,50.5-50.5
			c23.693,0,44.414,16.744,49.371,39.852c0.358,1.67,1.15,3.246,2.443,4.361c2.6,2.242,6.217,2.426,8.952,0.7
			c4.843-3.054,10.435-4.668,16.172-4.668c17.056,0,30.874,14.129,30.364,31.298c-0.491,16.522-14.481,29.457-31.01,29.457h-52.927
			c-4.139,0-7.494,3.355-7.494,7.494v0.013c0,4.139,3.355,7.494,7.494,7.494h52.769c25.391,0,46.61-20.778,46.175-46.166
			C449.979,133.925,429.788,113.995,405.031,113.995z"/>
	</g>
</g>
<g>
</g>
<g>
</g>
<g>
</g>
<g>
</g>
<g>
</g>
<g>
</g>
<g>
</g>
<g>
</g>
<g>
</g>
<g>
</g>
<g>
</g>
<g>
</g>
<g>
</g>
<g>
</g>
<g>
</g>
</svg>
