<?xml version="1.0" encoding="iso-8859-1"?>
<!-- Generator: Adobe Illustrator 19.0.0, SVG Export Plug-In . SVG Version: 6.00 Build 0)  -->
<svg version="1.1" id="Capa_1" xmlns="http://www.w3.org/2000/svg" xmlns:xlink="http://www.w3.org/1999/xlink" x="0px" y="0px"
	 viewBox="0 0 512.001 512.001" style="enable-background:new 0 0 512.001 512.001;" xml:space="preserve">
<g>
	<g>
		<path d="M504.186,461.501H280.999l-0.746-116.839c66.508-10.24,119.249-62.756,129.805-129.161h58.396
			c13.426,0,24.769-10.987,24.542-24.411c-0.22-13.045-10.9-23.589-23.997-23.589h-19.751c1.249-3.076,1.877-6.468,1.73-10.018
			c-0.538-12.938-11.551-22.982-24.5-22.982h-25.117c-7.846-20.046-19.738-38.078-34.665-53.09
			c-2.927-2.943-7.694-2.941-10.629-0.006c-2.926,2.926-2.924,7.662-0.006,10.596c12.115,12.185,22.022,26.568,29.048,42.499
			h-40.564c-13.426,0-24.769,10.987-24.542,24.411c0.22,13.045,10.9,23.589,23.997,23.589h19.751
			c-1.249,3.076-1.877,6.468-1.73,10.018c0.538,12.938,11.551,22.982,24.5,22.982h8.322c-10.27,58.15-56.42,104.061-114.687,113.983
			l-0.132-20.689l41.767-48.755c5.587-6.521,6.069-16.513,1.122-23.242l-6.102-8.299c-2.728-3.709-6.79-5.905-11.146-6.026
			c-4.496-0.135-8.83,1.953-11.919,5.699l-15.34,18.611l-0.4-33.656c-0.118-9.902-6.938-17.658-15.526-17.658h-11.963
			c-8.587,0-15.409,7.756-15.53,17.656l-0.04,3.232l-16.931-21.139c-3.14-3.92-7.589-6.121-12.167-5.964
			c-4.461,0.125-8.605,2.422-11.369,6.3l-6.272,8.803c-4.932,6.92-4.432,17.2,1.162,23.913l43.131,51.753l-0.168,49.393
			C166.336,317.927,116,260.233,116,191.001c0-14.626,2.261-28.731,6.429-42h57.633c11.508,0,21.322-8.932,21.756-20.431
			c0.456-12.089-9.245-22.069-21.235-22.069h-14.688c0.609-1.977,0.938-4.076,0.938-6.25c0-5.012-1.754-9.616-4.667-13.253
			c24.953-22.66,58.052-36.497,94.334-36.497c23.799,0,46.221,5.965,65.879,16.457c2.933,1.565,6.537,1.067,8.888-1.284l0.006-0.006
			c3.569-3.569,2.665-9.565-1.787-11.942c-21.775-11.628-46.623-18.225-72.986-18.225c-41.907,0-79.976,16.679-107.962,43.73
			c-0.968-0.136-1.949-0.23-2.954-0.23H76.939c-11.508,0-21.322,8.932-21.756,20.431c-0.456,12.089,9.245,22.069,21.235,22.069
			h14.688c-0.609,1.977-0.938,4.076-0.938,6.25c0,10.176,7.193,18.695,16.759,20.763c-3.714,13.051-5.772,26.792-5.907,40.987
			H81.036c-12.883,0-23.991,10.533-24.036,23.417c-0.011,3.026,0.554,5.922,1.59,8.583H45.034
			c-13.147,0-24.253,10.758-24.031,23.903c0.216,12.773,10.674,23.097,23.497,23.097h61c5.012,0,9.798-1.585,13.76-4.454
			c22.56,42.216,64.033,72.851,113.021,80.548l-0.398,116.906h-67.32c3.279-2.002,5.761-3.688,6.98-4.539
			c3.317-2.315,4.201-6.844,1.997-10.236c-3.262-5.021-20.344-30.227-36.337-33.348c-14.859-2.902-29.257,4.248-35.453,16.516
			c-2.849-1.097-5.108-2.21-6.662-3.317c-3.218-2.292-7.72-2.08-10.327,0.889c-2.927,3.335-2.343,8.381,1.143,10.978
			c2.997,2.233,7.26,4.318,12.72,6.252c0.29,5.799,2.286,11.445,5.88,16.387c0.103,0.142,0.214,0.277,0.319,0.417H7.814
			c-4.107,0-7.688,3.165-7.811,7.27c-0.127,4.247,3.278,7.73,7.497,7.73h497c4.219,0,7.623-3.482,7.497-7.73
			C511.874,464.666,508.293,461.501,504.186,461.501z M386,200.501c-4.963,0-9-4.037-9-9s4.037-9,9-9c4.143,0,7.5-3.357,7.5-7.5
			s-3.357-7.5-7.5-7.5h-42c-4.963,0-9-4.037-9-9s4.037-9,9-9h83c4.963,0,9,4.037,9,9s-4.037,9-9,9c-4.143,0-7.5,3.357-7.5,7.5
			s3.357,7.5,7.5,7.5h42c4.963,0,9,4.037,9,9s-4.037,9-9,9H386z M105.167,127.751c0-3.446,2.804-6.25,6.25-6.25
			c4.142,0,7.5-3.357,7.5-7.5s-3.358-7.5-7.5-7.5h-35c-3.446,0-6.25-2.804-6.25-6.25s2.803-6.25,6.25-6.25h69.167
			c3.446,0,6.25,2.804,6.25,6.25s-2.804,6.25-6.25,6.25c-4.142,0-7.5,3.357-7.5,7.5s3.358,7.5,7.5,7.5h35
			c3.446,0,6.25,2.804,6.25,6.25s-2.804,6.25-6.25,6.25h-69.167C107.97,134.001,105.167,131.197,105.167,127.751z M112.076,250.388
			c-1.624,1.979-4.021,3.113-6.576,3.113h-61c-4.687,0-8.5-3.813-8.5-8.5s3.813-8.5,8.5-8.5h36c4.142,0,7.5-3.357,7.5-7.5
			s-3.358-7.5-7.5-7.5c-4.687,0-8.5-3.813-8.5-8.5s3.813-8.5,8.5-8.5h21.093c1.375,15.914,5.157,31.148,10.98,45.34
			C112.4,250.014,112.234,250.195,112.076,250.388z M128.208,459.481c-4.751-0.927-8.86-3.49-11.572-7.219
			c-0.703-0.967-1.277-1.984-1.74-3.031c5.112,1.143,10.763,2.213,16.983,3.204c0.399,0.064,0.796,0.095,1.189,0.095
			c3.622,0,6.81-2.63,7.397-6.321c0.651-4.091-2.136-7.935-6.227-8.586c-6.487-1.034-12.381-2.172-17.58-3.375
			c3.116-4.029,8.267-6.513,13.914-6.513c1.235,0,2.493,0.118,3.758,0.365c5.813,1.134,15.415,11.459,22.306,20.644
			C146.808,454.665,134.034,460.622,128.208,459.481z M265.999,461.501h-19.116l0.627-184.156c0.006-1.764-0.609-3.473-1.738-4.827
			l-44.878-53.851c-1.273-1.527-1.324-4.406-0.47-5.604l5.964-8.369l29.949,37.393c1.98,2.473,5.3,3.435,8.295,2.403
			c2.995-1.031,5.019-3.833,5.058-7l0.296-24.181c0.019-1.525,0.571-2.497,0.888-2.84h11.249c0.316,0.343,0.867,1.313,0.886,2.837
			l0.644,54.161c0.037,3.148,2.037,5.938,5.007,6.985c2.968,1.044,6.276,0.127,8.279-2.304l28.196-34.209l5.692,7.743
			c0.715,0.973,0.657,3.332-0.427,4.599l-43.588,50.882c-1.176,1.371-1.816,3.121-1.805,4.927L265.999,461.501z"/>
	</g>
</g>
<g>
	<g>
		<path d="M417.689,383.501h-13.788c0.528-1.827,0.811-3.756,0.811-5.75c0-11.441-9.309-20.75-20.75-20.75h-66.651
			c-11.441,0-20.75,9.309-20.75,20.75c0,11.441,9.309,20.75,20.75,20.75h13.788c-0.528,1.827-0.811,3.756-0.811,5.75
			c0,11.441,9.309,20.75,20.75,20.75h66.651c11.441,0,20.75-9.309,20.75-20.75C438.439,392.81,429.13,383.501,417.689,383.501z
			 M417.69,410.001h-66.651c-3.171,0-5.75-2.579-5.75-5.75c0-3.171,2.579-5.75,5.75-5.75c4.143,0,7.5-3.357,7.5-7.5
			s-3.357-7.5-7.5-7.5h-33.728c-3.171,0-5.75-2.579-5.75-5.75c0-3.171,2.579-5.75,5.75-5.75h66.651c3.171,0,5.75,2.579,5.75,5.75
			c0,3.171-2.579,5.75-5.75,5.75c-4.143,0-7.5,3.357-7.5,7.5s3.357,7.5,7.5,7.5h33.728c3.171,0,5.75,2.579,5.75,5.75
			C423.44,407.422,420.861,410.001,417.69,410.001z"/>
	</g>
</g>
<g>
	<g>
		<path d="M480,383.501h-6c-11.579,0-21,9.421-21,21c0,11.579,9.421,21,21,21h6c11.579,0,21-9.421,21-21
			C501,392.922,491.579,383.501,480,383.501z M480,410.501h-6c-3.309,0-6-2.691-6-6c0-3.309,2.691-6,6-6h6c3.309,0,6,2.691,6,6
			C486,407.81,483.309,410.501,480,410.501z"/>
	</g>
</g>
<g>
	<g>
		<path d="M93,325.501H32c-12.131,0-22,9.869-22,22c0,12.131,9.869,22,22,22h61c12.131,0,22-9.869,22-22
			C115,335.37,105.131,325.501,93,325.501z M93,354.501H32c-3.86,0-7-3.141-7-7s3.14-7,7-7h61c3.86,0,7,3.141,7,7
			S96.86,354.501,93,354.501z"/>
	</g>
</g>
<g>
	<g>
		<path d="M153,325.501h-5c-12.131,0-22,9.869-22,22c0,12.131,9.869,22,22,22h5c12.131,0,22-9.869,22-22
			C175,335.37,165.131,325.501,153,325.501z M153,354.501h-5c-3.86,0-7-3.141-7-7s3.14-7,7-7h5c3.86,0,7,3.141,7,7
			S156.86,354.501,153,354.501z"/>
	</g>
</g>
<g>
</g>
<g>
</g>
<g>
</g>
<g>
</g>
<g>
</g>
<g>
</g>
<g>
</g>
<g>
</g>
<g>
</g>
<g>
</g>
<g>
</g>
<g>
</g>
<g>
</g>
<g>
</g>
<g>
</g>
</svg>
