<?xml version="1.0" encoding="iso-8859-1"?>
<!-- Generator: Adobe Illustrator 19.0.0, SVG Export Plug-In . SVG Version: 6.00 Build 0)  -->
<svg version="1.1" id="Capa_1" xmlns="http://www.w3.org/2000/svg" xmlns:xlink="http://www.w3.org/1999/xlink" x="0px" y="0px"
	 viewBox="0 0 512 512" style="enable-background:new 0 0 512 512;" xml:space="preserve">
<g>
	<g>
		<path d="M454.883,253.226l-24.537-35.412l6.78-42.551c0.494-3.097-0.99-6.175-3.721-7.717l-37.51-21.199l-12.352-41.276
			c-0.898-3-3.564-5.129-6.689-5.339l-42.99-2.893L304.818,65.01c-2.114-2.317-5.444-3.076-8.354-1.903l-39.964,16.114
			l-39.965-16.114c-2.909-1.174-6.241-0.413-8.354,1.903l-29.044,31.829l-42.989,2.893c-3.125,0.21-5.791,2.338-6.689,5.339
			l-12.353,41.276l-37.51,21.199c-2.731,1.544-4.214,4.621-3.721,7.717l6.78,42.551L58.12,253.226c-1.782,2.572-1.782,5.981,0,8.552
			l24.537,35.412l-6.78,42.551c-0.494,3.097,0.99,6.175,3.721,7.717l37.51,21.199l12.353,41.276c0.898,3,3.564,5.129,6.689,5.339
			l42.99,2.893l29.045,31.829c2.113,2.317,5.445,3.075,8.354,1.903l39.965-16.114l39.965,16.114
			c0.911,0.367,1.863,0.545,2.806,0.545c2.069,0,4.096-0.856,5.548-2.448l29.044-31.829l42.99-2.894
			c3.125-0.21,5.791-2.338,6.689-5.339l12.352-41.276l37.51-21.199c2.729-1.542,4.213-4.62,3.719-7.716l-6.78-42.551l24.537-35.412
			C456.665,259.206,456.665,255.798,454.883,253.226z M416.284,291.116c-1.103,1.591-1.548,3.546-1.243,5.458l6.434,40.377
			l-35.6,20.12c-1.689,0.954-2.942,2.525-3.499,4.384l-11.727,39.184l-40.804,2.747c-1.931,0.13-3.737,1.001-5.042,2.431
			l-27.561,30.203l-37.935-15.295c-1.802-0.727-3.814-0.727-5.615,0l-37.935,15.295l-27.561-30.204
			c-1.304-1.43-3.11-2.301-5.042-2.431l-40.803-2.746l-11.727-39.184c-0.557-1.858-1.81-3.43-3.499-4.384l-35.601-20.12
			l6.435-40.377c0.304-1.911-0.141-3.866-1.243-5.458l-23.292-33.615l23.292-33.615c1.103-1.591,1.548-3.546,1.243-5.458
			l-6.434-40.377l35.601-20.12c1.689-0.954,2.942-2.525,3.499-4.384l11.727-39.184l40.804-2.747c1.931-0.13,3.737-1.001,5.042-2.431
			l27.561-30.203l37.935,15.295c1.802,0.727,3.814,0.727,5.615,0l37.935-15.295l27.561,30.204c1.304,1.43,3.11,2.3,5.042,2.431
			l40.803,2.746l11.727,39.184c0.557,1.858,1.81,3.43,3.499,4.384l35.601,20.12l-6.435,40.377c-0.304,1.911,0.141,3.866,1.243,5.458
			l23.291,33.615L416.284,291.116z"/>
	</g>
</g>
<g>
	<g>
		<path d="M400.121,254.244c-1.695-76.178-63.364-138.214-139.533-140.343c-26.948-0.753-52.301,5.966-74.146,18.224
			c-4.357,2.445-5.214,8.349-1.681,11.882l0.001,0.001c2.36,2.36,6.009,2.906,8.917,1.271
			c19.958-11.218,43.188-17.272,67.874-16.321c67.096,2.586,121.319,57.135,123.517,124.246
			c2.435,74.313-58.532,135.289-132.842,132.868c-67.55-2.199-122.308-57.128-124.311-124.684
			c-1.029-34.721,11.785-66.502,33.317-90.235c2.689-2.964,2.584-7.512-0.246-10.342c-3.033-3.033-7.992-2.914-10.875,0.262
			c-23.735,26.161-37.984,61.078-37.243,99.267c1.488,76.655,63.741,139.087,140.392,140.783
			C335.038,402.933,401.941,336.023,400.121,254.244z"/>
	</g>
</g>
<g>
	<g>
		<path d="M504.492,54.78c-16.823,0-28.643-3.643-36.136-11.135c-7.492-7.493-11.135-19.313-11.135-36.136
			c0-4.147-3.362-7.508-7.508-7.508s-7.508,3.362-7.508,7.508c0,16.823-3.643,28.643-11.135,36.136
			c-7.493,7.492-19.313,11.135-36.137,11.135c-4.147,0-7.508,3.362-7.508,7.508c0,4.146,3.362,7.508,7.508,7.508
			c16.823,0,28.643,3.643,36.137,11.135c7.492,7.493,11.135,19.313,11.135,36.137c0,4.147,3.362,7.508,7.508,7.508
			s7.508-3.362,7.508-7.508c0-16.823,3.643-28.643,11.135-36.137c7.493-7.492,19.313-11.135,36.136-11.135
			c4.147,0,7.508-3.362,7.508-7.508C512,58.142,508.639,54.78,504.492,54.78z M457.738,70.314
			c-3.165,3.165-5.837,6.773-8.026,10.851c-2.188-4.077-4.86-7.685-8.026-10.851s-6.773-5.837-10.851-8.026
			c4.078-2.188,7.685-4.86,10.851-8.026s5.837-6.773,8.026-10.851c2.188,4.077,4.86,7.685,8.026,10.851
			c3.165,3.165,6.773,5.837,10.851,8.026C464.511,64.477,460.902,67.148,457.738,70.314z"/>
	</g>
</g>
<g>
	<g>
		<path d="M117.068,442.204c-16.823,0-28.643-3.643-36.137-11.135c-7.492-7.493-11.135-19.313-11.135-36.137
			c0-4.147-3.362-7.508-7.508-7.508c-4.147,0-7.508,3.362-7.508,7.508c0,16.823-3.643,28.643-11.135,36.137
			c-7.493,7.493-19.313,11.135-36.136,11.135c-4.147,0-7.508,3.362-7.508,7.508s3.362,7.508,7.508,7.508
			c16.823,0,28.643,3.643,36.136,11.135c7.492,7.493,11.135,19.313,11.135,36.137c0,4.147,3.362,7.508,7.508,7.508
			c4.146,0,7.508-3.362,7.508-7.508c0-16.823,3.643-28.643,11.135-36.136c7.493-7.492,19.313-11.135,36.137-11.135
			c4.147,0,7.508-3.362,7.508-7.508S121.216,442.204,117.068,442.204z M70.314,457.738c-3.165,3.165-5.837,6.773-8.026,10.851
			c-2.188-4.077-4.86-7.685-8.026-10.851c-3.165-3.165-6.773-5.837-10.851-8.026c4.077-2.188,7.685-4.86,10.851-8.026
			s5.837-6.773,8.026-10.851c2.188,4.078,4.86,7.685,8.026,10.851s6.773,5.837,10.851,8.026
			C77.087,451.9,73.478,454.572,70.314,457.738z"/>
	</g>
</g>
<g>
	<g>
		<path d="M118.79,54.78c-18.687,0-25.968-7.281-25.968-25.968c0-4.147-3.362-7.508-7.508-7.508s-7.508,3.362-7.508,7.508
			c0,18.687-7.281,25.968-25.968,25.968c-4.146,0-7.508,3.362-7.508,7.508c0,4.146,3.362,7.508,7.508,7.508
			c18.687,0,25.968,7.281,25.968,25.968c0,4.146,3.362,7.508,7.508,7.508s7.508-3.362,7.508-7.508
			c0-18.687,7.281-25.968,25.968-25.968c4.147,0,7.508-3.362,7.508-7.508C126.298,58.142,122.936,54.78,118.79,54.78z
			 M85.313,68.296c-1.711-2.294-3.715-4.297-6.008-6.008c2.293-1.711,4.297-3.715,6.008-6.008c1.711,2.294,3.715,4.297,6.008,6.008
			C89.027,63.999,87.024,66.003,85.313,68.296z"/>
	</g>
</g>
<g>
	<g>
		<path d="M353.967,270.015c-14.679,0-19.882-5.203-19.882-19.882c0-4.147-3.362-7.508-7.508-7.508s-7.508,3.362-7.508,7.508
			c0,14.679-5.203,19.882-19.882,19.882c-4.146,0-7.508,3.362-7.508,7.508c0,4.146,3.362,7.508,7.508,7.508
			c14.679,0,19.882,5.203,19.882,19.882c0,4.147,3.362,7.508,7.508,7.508s7.508-3.362,7.508-7.508
			c0-14.679,5.203-19.882,19.882-19.882c4.147,0,7.508-3.362,7.508-7.508S358.114,270.015,353.967,270.015z"/>
	</g>
</g>
<g>
	<g>
		<path d="M478.103,438.199c-14.679,0-19.882-5.203-19.882-19.882c0-4.147-3.362-7.508-7.508-7.508s-7.508,3.362-7.508,7.508
			c0,14.679-5.203,19.882-19.882,19.882c-4.147,0-7.508,3.362-7.508,7.508s3.362,7.508,7.508,7.508
			c14.679,0,19.882,5.203,19.882,19.882c0,4.147,3.362,7.508,7.508,7.508s7.508-3.362,7.508-7.508
			c0-14.679,5.203-19.882,19.882-19.882c4.146,0,7.508-3.362,7.508-7.508S482.249,438.199,478.103,438.199z"/>
	</g>
</g>
<g>
</g>
<g>
</g>
<g>
</g>
<g>
</g>
<g>
</g>
<g>
</g>
<g>
</g>
<g>
</g>
<g>
</g>
<g>
</g>
<g>
</g>
<g>
</g>
<g>
</g>
<g>
</g>
<g>
</g>
</svg>
