<?xml version="1.0" encoding="iso-8859-1"?>
<!-- Generator: Adobe Illustrator 19.0.0, SVG Export Plug-In . SVG Version: 6.00 Build 0)  -->
<svg version="1.1" id="Capa_1" xmlns="http://www.w3.org/2000/svg" xmlns:xlink="http://www.w3.org/1999/xlink" x="0px" y="0px"
	 viewBox="0 0 512 512" style="enable-background:new 0 0 512 512;" xml:space="preserve">
<g>
	<g>
		<path d="M121.619,118.366c-4.229,0-8.399,0.674-12.366,1.981c-8.34-21.323-29.217-36.014-52.697-36.014
			C25.371,84.332,0,109.703,0,140.888c0,22.277,12.948,41.584,31.711,50.797c5.017,2.463,10.884-1.122,10.884-6.711
			c0-2.908-1.701-5.507-4.31-6.791c-13.769-6.772-23.27-20.943-23.27-37.295c0-22.905,18.635-41.541,41.541-41.541
			c19.458,0,36.48,13.728,40.592,32.689c0.362,1.673,1.141,3.257,2.429,4.384c2.597,2.271,6.239,2.462,8.988,0.729
			c5.475-3.453,12.14-4.627,18.65-3.131c10.542,2.421,18.309,11.734,18.891,22.535c0.763,14.133-10.517,25.875-24.488,25.875H78.79
			c-4.146,0-7.507,3.361-7.507,7.507s3.361,7.507,7.507,7.507h42.087c21.591,0,39.759-17.001,40.269-38.586
			C161.672,136.621,143.737,118.366,121.619,118.366z"/>
	</g>
</g>
<g>
	<g>
		<path d="M477.069,213.664c-3.394,0-6.746,0.492-9.959,1.447c-7.537-18.156-25.54-30.586-45.747-30.586
			c-6.503,0-12.791,1.239-18.733,3.676c-14.783-11.753-33.48-18.786-53.791-18.786c-26.705,0-51.555,12.16-67.923,32.882
			c-16.888-11.631-37.335-18.452-59.347-18.452c-18.597,0-36.196,4.907-51.481,13.544c-4.3,2.43-5.063,8.317-1.57,11.81l0.018,0.018
			c2.364,2.364,6.02,2.896,8.932,1.251c13.095-7.399,28.169-11.608,44.102-11.608c49.556,0,89.875,40.317,89.875,89.875
			c0,3.393-0.198,6.85-0.588,10.278c-0.279,2.457,0.479,4.977,2.297,6.654c2.81,2.593,6.954,2.65,9.799,0.386
			c10.677-8.49,23.53-12.978,37.169-12.978c32.968,0,59.788,26.821,59.788,59.789c0,31.253-24.401,57.441-55.552,59.621
			c-0.385,0.027-232.253,0.168-232.253,0.168c-35.587,0-64.539-28.952-64.539-64.539c0-33.35,24.989-60.96,58.129-64.223
			c3.485-0.343,6.272-3.015,6.709-6.489c1.849-14.703,7.228-28.217,15.218-39.74c2.077-2.995,1.753-7.036-0.825-9.612
			c-3.308-3.308-8.804-2.809-11.473,1.034c-8.293,11.938-14.191,25.704-16.926,40.658c-17.3,3.008-33.143,11.68-45.1,24.796
			c-13.378,14.675-20.746,33.703-20.746,53.576c0,43.866,35.688,79.554,79.554,79.554c0,0,234.324-0.119,235.048-0.347
			c38.145-3.566,67.772-35.938,67.772-74.457c0-17.382-5.976-33.384-15.958-46.099c5.147-7.112,9.155-14.966,11.934-23.239h45.472
			c19.544,0,35.955-15.994,35.622-35.535C511.672,229.008,496.129,213.664,477.069,213.664z M408.352,295.749
			c-13.033-11.023-29.864-17.688-48.23-17.688c-11.908,0-23.337,2.733-33.696,7.994c-0.741-29.366-13.613-55.767-33.778-74.382
			c13.532-17.167,34.095-27.243,56.194-27.243c39.464,0,71.57,32.106,71.57,71.57C420.411,270.162,416.16,284.046,408.352,295.749z
			 M477.069,268.512h-42.575c0.607-4.129,0.931-8.309,0.931-12.512c0-21.269-7.713-40.767-20.482-55.855
			c2.099-0.394,4.24-0.605,6.42-0.605c16.239,0,30.433,11.517,33.751,27.385c0.503,2.407,2.154,4.415,4.418,5.375
			c2.264,0.959,4.854,0.75,6.935-0.563c3.173-2.002,6.84-3.06,10.6-3.06c10.983,0,19.916,8.935,19.916,19.917
			C496.985,259.578,488.051,268.512,477.069,268.512z"/>
	</g>
</g>
<g>
	<g>
		<circle cx="359.351" cy="141.388" r="13.013"/>
	</g>
</g>
<g>
	<g>
		<circle cx="414.405" cy="160.407" r="13.013"/>
	</g>
</g>
<g>
	<g>
		<circle cx="298.291" cy="154.401" r="13.013"/>
	</g>
</g>
<g>
</g>
<g>
</g>
<g>
</g>
<g>
</g>
<g>
</g>
<g>
</g>
<g>
</g>
<g>
</g>
<g>
</g>
<g>
</g>
<g>
</g>
<g>
</g>
<g>
</g>
<g>
</g>
<g>
</g>
</svg>
