<?xml version="1.0" encoding="iso-8859-1"?>
<!-- Generator: Adobe Illustrator 19.0.0, SVG Export Plug-In . SVG Version: 6.00 Build 0)  -->
<svg version="1.1" id="Capa_1" xmlns="http://www.w3.org/2000/svg" xmlns:xlink="http://www.w3.org/1999/xlink" x="0px" y="0px"
	 viewBox="0 0 512 512" style="enable-background:new 0 0 512 512;" xml:space="preserve">
<g>
	<g>
		<path d="M359.419,215.079c-11.884,0-23.291,2.727-33.63,7.978c-1.425-56.491-47.822-102.008-104.651-102.008
			c-19.734,0-38.336,5.543-54.236,15.206c-4.149,2.522-4.837,8.269-1.405,11.703c2.446,2.446,6.239,2.883,9.196,1.089
			c13.619-8.268,29.546-13.011,46.445-13.011c49.46,0,89.699,40.239,89.699,89.699c0,3.387-0.198,6.837-0.587,10.259
			c-0.28,2.453,0.479,4.967,2.294,6.641c2.804,2.586,6.938,2.643,9.778,0.385c10.657-8.474,23.484-12.952,37.097-12.952
			c32.904,0,59.672,26.769,59.672,59.673c0,31.192-24.353,57.329-55.444,59.505c-0.385,0.027-231.8,0.168-231.8,0.168
			c-35.517,0-64.413-28.896-64.413-64.413c0-33.279,24.932-60.831,57.996-64.096c3.499-0.346,6.28-3.034,6.719-6.522
			c1.727-13.685,6.528-26.329,13.641-37.298c1.916-2.954,1.492-6.846-0.998-9.337l-0.017-0.017
			c-3.378-3.378-9.003-2.766-11.601,1.243c-7.291,11.256-12.49,24.031-15.009,37.805c-17.266,3.002-33.079,11.658-45.012,24.748
			c-13.351,14.645-20.705,33.635-20.705,53.47c0,43.78,35.618,79.398,79.398,79.398c0,0,233.867-0.119,234.589-0.347
			c38.071-3.56,67.64-35.868,67.64-74.31C434.076,248.57,400.585,215.079,359.419,215.079z"/>
	</g>
</g>
<g>
	<g>
		<path d="M121.381,55.696c-4.221,0-8.383,0.672-12.342,1.977c-8.324-21.281-29.159-35.944-52.595-35.944
			C25.321,21.729,0,47.05,0,78.174c0,23.591,14.549,43.842,35.145,52.264c4.923,2.013,10.32-1.62,10.32-6.939v-0.008
			c0-3.086-1.916-5.799-4.77-6.976c-15.07-6.213-25.709-21.053-25.709-38.341c0-22.861,18.599-41.459,41.46-41.459
			c19.42,0,36.408,13.702,40.512,32.624c0.362,1.668,1.138,3.251,2.423,4.375c2.59,2.268,6.227,2.459,8.972,0.728
			c5.465-3.447,12.116-4.617,18.614-3.125c10.522,2.417,18.273,11.712,18.855,22.491c0.761,14.105-10.497,25.825-24.44,25.825
			H81.584c-4.135,0-7.488,3.352-7.488,7.488v0.011c0,4.135,3.352,7.488,7.488,7.488h39.056c21.549,0,39.681-16.967,40.191-38.51
			C161.356,73.917,143.457,55.696,121.381,55.696z"/>
	</g>
</g>
<g>
	<g>
		<path d="M483.268,151.081c-2.29,0-4.556,0.272-6.754,0.803c-6.408-13.936-20.562-23.37-36.388-23.37
			c-11.569,0-22.002,4.94-29.313,12.815l-12.521-6.551l28.293-14.802l14.829,4.642c0.745,0.234,1.499,0.345,2.241,0.345
			c3.189,0,6.145-2.052,7.148-5.256c1.237-3.949-0.962-8.153-4.912-9.389l-9.272-2.903l3.332-10.642
			c1.236-3.949-0.963-8.153-4.912-9.389c-3.95-1.237-8.152,0.963-9.389,4.912l-4.214,13.461l-31.816,16.645V88.527l10.988-10.988
			c2.926-2.926,2.926-7.671,0-10.596c-2.926-2.926-7.671-2.926-10.596,0l-6.87,6.87l-7.884-7.884c-2.926-2.926-7.67-2.926-10.596,0
			c-2.926,2.926-2.926,7.671,0,10.596l9.972,9.974v35.906l-31.815-16.644L338.605,92.3c-1.237-3.949-5.439-6.149-9.389-4.912
			c-3.949,1.236-6.148,5.44-4.912,9.389l3.332,10.642l-9.272,2.903c-3.949,1.236-6.148,5.44-4.912,9.389
			c1.003,3.204,3.959,5.256,7.148,5.256c0.741,0,1.496-0.111,2.241-0.345l14.829-4.642l28.293,14.802l-31.575,16.519l-13.461-4.214
			c-3.951-1.239-8.153,0.963-9.389,4.912c-1.237,3.949,0.962,8.153,4.912,9.389l10.641,3.331l-2.902,9.273
			c-1.237,3.949,0.962,8.153,4.912,9.389c0.745,0.234,1.499,0.345,2.241,0.345c3.189,0,6.145-2.052,7.148-5.256l4.642-14.83
			l31.501-16.482v37.581l-9.973,9.973c-2.926,2.926-2.926,7.67,0,10.596c1.463,1.463,3.381,2.195,5.298,2.195
			c1.917,0,3.835-0.731,5.298-2.195l7.884-7.884l6.87,6.87c2.926,2.926,7.671,2.926,10.596,0c2.926-2.926,2.926-7.67,0-10.596
			l-10.987-10.988v-35.552l13.207,6.909c-1.747,4.49-2.717,9.365-2.717,14.466c0,22.064,17.951,40.016,40.016,40.016h43.143
			c15.843,0,28.732-12.889,28.732-28.732C512,163.973,499.111,151.081,483.268,151.081z M483.268,193.561h-43.143
			c-13.802,0-25.031-11.228-25.031-25.031c0-13.803,11.228-25.031,25.031-25.031c11.786,0,22.089,8.358,24.497,19.874
			c0.503,2.403,2.15,4.407,4.41,5.365c2.26,0.957,4.845,0.749,6.921-0.561c2.189-1.381,4.718-2.111,7.315-2.111
			c7.58,0,13.747,6.167,13.747,13.747C497.015,187.392,490.848,193.561,483.268,193.561z"/>
	</g>
</g>
<g>
	<g>
		<path d="M276.273,410.289l-6.398-4.101l6.297-4.256c3.429-2.317,4.329-6.974,2.012-10.404c-2.317-3.429-6.974-4.33-10.404-2.012
			l-4.038,2.729v-4.874c0-4.138-3.355-7.493-7.493-7.493s-7.493,3.355-7.493,7.493v5.279l-4.444-2.849
			c-3.483-2.232-8.117-1.221-10.351,2.265c-2.233,3.484-1.22,8.118,2.265,10.351l6.398,4.101l-6.297,4.256
			c-3.429,2.317-4.329,6.974-2.012,10.404c1.448,2.143,3.809,3.298,6.215,3.298c1.444,0,2.902-0.417,4.189-1.286l4.038-2.729v4.874
			c0,4.138,3.355,7.493,7.493,7.493c4.138,0,7.493-3.355,7.493-7.493v-5.279l4.444,2.849c1.252,0.802,2.652,1.186,4.037,1.186
			c2.468,0,4.884-1.218,6.315-3.451C280.771,417.157,279.757,412.522,276.273,410.289z"/>
	</g>
</g>
<g>
	<g>
		<path d="M180.367,410.789l-6.398-4.101l6.297-4.256c3.429-2.317,4.329-6.974,2.012-10.404c-2.317-3.429-6.973-4.33-10.404-2.012
			l-4.038,2.729v-4.874c0-4.138-3.355-7.493-7.493-7.493c-4.138,0-7.493,3.355-7.493,7.493v5.279l-4.444-2.849
			c-3.483-2.232-8.118-1.22-10.351,2.265c-2.233,3.484-1.22,8.118,2.265,10.351l6.398,4.101l-6.297,4.256
			c-3.429,2.317-4.329,6.974-2.012,10.404c1.448,2.143,3.809,3.298,6.215,3.298c1.444,0,2.902-0.417,4.189-1.286l4.038-2.729v4.874
			c0,4.138,3.355,7.493,7.493,7.493s7.493-3.355,7.493-7.493v-5.279l4.444,2.849c1.252,0.802,2.652,1.186,4.037,1.186
			c2.468,0,4.884-1.218,6.315-3.451C184.864,417.656,183.85,413.022,180.367,410.789z"/>
	</g>
</g>
<g>
	<g>
		<path d="M227.321,467.733l-6.398-4.101l6.297-4.256c3.429-2.317,4.329-6.974,2.012-10.404c-2.317-3.429-6.974-4.33-10.404-2.012
			l-4.038,2.729v-4.874c0-4.138-3.355-7.493-7.493-7.493c-4.138,0-7.493,3.355-7.493,7.493v5.279l-4.444-2.849
			c-3.483-2.233-8.118-1.22-10.351,2.265c-2.233,3.484-1.22,8.118,2.265,10.351l6.398,4.101l-6.297,4.256
			c-3.429,2.317-4.329,6.974-2.012,10.404c1.448,2.143,3.809,3.298,6.215,3.298c1.444,0,2.902-0.417,4.189-1.286l4.038-2.729v4.874
			c0,4.138,3.355,7.493,7.493,7.493c4.138,0,7.493-3.355,7.493-7.493V477.5l4.444,2.849c1.252,0.802,2.652,1.186,4.037,1.186
			c2.468,0,4.884-1.218,6.315-3.451C231.819,474.601,230.805,469.966,227.321,467.733z"/>
	</g>
</g>
<g>
	<g>
		<path d="M321.229,467.733l-6.398-4.101l6.297-4.256c3.429-2.317,4.329-6.974,2.012-10.404c-2.317-3.429-6.974-4.33-10.404-2.012
			l-4.038,2.729v-4.874c0-4.138-3.355-7.493-7.493-7.493c-4.138,0-7.493,3.355-7.493,7.493v5.279l-4.444-2.849
			c-3.482-2.233-8.117-1.22-10.351,2.265c-2.233,3.484-1.22,8.118,2.265,10.351l6.398,4.101l-6.297,4.256
			c-3.429,2.317-4.329,6.974-2.012,10.404c1.448,2.143,3.809,3.298,6.215,3.298c1.444,0,2.902-0.417,4.189-1.286l4.038-2.729v4.874
			c0,4.138,3.355,7.493,7.493,7.493c4.138,0,7.493-3.355,7.493-7.493V477.5l4.444,2.849c1.252,0.802,2.652,1.186,4.037,1.186
			c2.468,0,4.884-1.218,6.315-3.451C325.727,474.601,324.713,469.966,321.229,467.733z"/>
	</g>
</g>
<g>
	<g>
		<path d="M365.186,410.789l-6.398-4.101l6.297-4.256c3.429-2.317,4.329-6.974,2.012-10.404c-2.317-3.429-6.973-4.33-10.404-2.012
			l-4.038,2.729v-4.874c0-4.138-3.355-7.493-7.493-7.493c-4.138,0-7.493,3.355-7.493,7.493v5.279l-4.444-2.849
			c-3.483-2.232-8.118-1.22-10.351,2.265c-2.233,3.484-1.22,8.118,2.265,10.351l6.398,4.101l-6.297,4.256
			c-3.429,2.317-4.329,6.974-2.012,10.404c1.448,2.143,3.809,3.298,6.215,3.298c1.444,0,2.902-0.417,4.189-1.286l4.038-2.729v4.874
			c0,4.138,3.355,7.493,7.493,7.493c4.138,0,7.493-3.355,7.493-7.493v-5.279l4.444,2.849c1.252,0.802,2.652,1.186,4.037,1.186
			c2.468,0,4.884-1.218,6.315-3.451C369.684,417.656,368.67,413.022,365.186,410.789z"/>
	</g>
</g>
<g>
</g>
<g>
</g>
<g>
</g>
<g>
</g>
<g>
</g>
<g>
</g>
<g>
</g>
<g>
</g>
<g>
</g>
<g>
</g>
<g>
</g>
<g>
</g>
<g>
</g>
<g>
</g>
<g>
</g>
</svg>
