<?xml version="1.0" encoding="iso-8859-1"?>
<!-- Generator: Adobe Illustrator 19.0.0, SVG Export Plug-In . SVG Version: 6.00 Build 0)  -->
<svg version="1.1" id="Capa_1" xmlns="http://www.w3.org/2000/svg" xmlns:xlink="http://www.w3.org/1999/xlink" x="0px" y="0px"
	 viewBox="0 0 512 512" style="enable-background:new 0 0 512 512;" xml:space="preserve">
<g>
	<g>
		<path d="M121.5,55.75c-4.225,0-8.391,0.673-12.354,1.979C100.814,36.427,79.958,21.75,56.5,21.75C25.346,21.75,0,47.095,0,78.25
			c0,23.397,14.296,43.515,34.611,52.084c4.924,2.077,10.374-1.571,10.374-6.915v-0.034c0-3.053-1.876-5.745-4.685-6.941
			C25.444,110.121,15,95.386,15,78.25c0-22.883,18.617-41.5,41.5-41.5c19.441,0,36.447,13.717,40.553,32.661
			c0.362,1.67,1.14,3.253,2.426,4.377c2.594,2.267,6.233,2.458,8.979,0.727c5.47-3.45,12.128-4.622,18.632-3.128
			c10.532,2.419,18.291,11.723,18.873,22.513c0.762,14.119-10.507,25.85-24.464,25.85H81.131c-4.134,0-7.486,3.351-7.486,7.486
			v0.029c0,4.134,3.351,7.486,7.486,7.486h39.628c21.57,0,39.72-16.984,40.23-38.548C161.514,73.988,143.597,55.75,121.5,55.75z"/>
	</g>
</g>
<g>
	<g>
		<path d="M472.5,123.75c-4.225,0-8.391,0.673-12.354,1.979c-8.333-21.302-29.188-35.979-52.646-35.979
			c-31.154,0-56.5,25.346-56.5,56.5c0,22.747,13.516,42.386,32.936,51.332c4.922,2.267,10.532-1.422,10.532-6.841v-0.026
			c0-2.957-1.763-5.588-4.443-6.838C375.851,177.269,366,162.892,366,146.25c0-22.883,18.617-41.5,41.5-41.5
			c19.445,0,36.454,13.723,40.556,32.673c0.362,1.671,1.143,3.254,2.433,4.375c2.597,2.257,6.227,2.446,8.97,0.717
			c5.47-3.45,12.128-4.622,18.632-3.128c10.532,2.419,18.291,11.723,18.873,22.513c0.762,14.119-10.507,25.85-24.464,25.85h-41.885
			c-4.134,0-7.486,3.351-7.486,7.486v0.029c0,4.134,3.351,7.486,7.486,7.486h41.144c21.57,0,39.72-16.984,40.23-38.548
			C512.514,141.988,494.597,123.75,472.5,123.75z"/>
	</g>
</g>
<g>
	<g>
		<path d="M359.77,215.288c-11.896,0-23.314,2.73-33.663,7.986c-1.426-56.546-47.869-102.108-104.753-102.108
			c-18.737,0-36.462,4.981-51.822,13.746c-4.275,2.44-5.027,8.301-1.547,11.782l0.024,0.024c2.369,2.369,6.035,2.895,8.945,1.235
			c13.161-7.511,28.344-11.786,44.4-11.786c49.508,0,89.787,40.278,89.787,89.787c0,3.39-0.198,6.843-0.587,10.268
			c-0.279,2.455,0.479,4.972,2.295,6.647c2.807,2.59,6.947,2.647,9.789,0.386c10.667-8.482,23.507-12.965,37.133-12.965
			c32.936,0,59.73,26.795,59.73,59.731c0,31.222-24.377,57.385-55.498,59.563c-0.385,0.027-0.385,0.027-0.385,0.027l-230.661,0.141
			c-35.879,0-65.86-29.358-65.451-65.235c0.376-32.977,25.213-60.166,58.068-63.402c3.477-0.342,6.264-2.995,6.699-6.462
			c1.828-14.566,7.123-27.966,14.99-39.416c2.055-2.991,1.724-7.009-0.842-9.575c-3.311-3.311-8.815-2.805-11.471,1.052
			c-8.157,11.844-13.961,25.472-16.667,40.264C101,209.983,85.172,218.647,73.227,231.75
			c-14.136,15.506-21.555,35.875-20.653,56.963c1.826,42.697,37.704,76.037,80.44,76.037h52.294l-9.139,42.374
			c-0.66,3.064,0.644,6.314,3.507,8.04c1.202,0.725,2.608,1.041,4.012,1.041h24.699l-13.388,64.755
			c-0.638,3.087,0.551,6.359,3.195,8.074c1.265,0.82,2.685,1.216,4.09,1.216c2.049,0,4.066-0.839,5.523-2.424l72.713-79.064
			c2.41-2.621,2.694-6.651,0.441-9.633c-1.445-1.914-3.783-2.944-6.182-2.944h-12.903l9.778-31.435c0,0,94.417-0.119,95.139-0.347
			c38.108-3.563,67.706-35.903,67.706-74.384C434.5,248.813,400.976,215.288,359.77,215.288z M215.122,457.715l9.818-47.491
			c0.457-2.209-0.105-4.506-1.529-6.255c-1.424-1.749-3.56-2.764-5.815-2.764H192.79l7.863-36.455h55.293l-11.417,36.708
			c-0.708,2.276-0.292,4.754,1.122,6.674c1.413,1.92,3.655,3.053,6.04,3.053h6.223L215.122,457.715z"/>
	</g>
</g>
<g>
	<g>
		<path d="M164.49,390.016c-0.034-2.379-1.195-4.601-3.128-5.988c-1.933-1.386-4.41-1.773-6.674-1.043
			c-6.499,2.097-22.151,7.726-27.142,14.685c-6.494,9.053-4.658,21.525,4.093,27.801c3.273,2.348,7.113,3.568,11.092,3.568
			c1.25,0,2.516-0.121,3.78-0.365c5.136-0.991,9.672-3.917,12.773-8.24C164.275,413.476,164.588,396.844,164.49,390.016z
			 M147.077,411.716c-0.854,1.179-2.063,1.971-3.408,2.23c-0.694,0.134-2.048,0.226-3.289-0.664
			c-2.029-1.456-2.319-4.538-0.674-6.833c0.995-1.212,4.718-3.259,9.382-5.304C148.649,406.196,147.906,410.366,147.077,411.716z"/>
	</g>
</g>
<g>
	<g>
		<path d="M372.49,390.016c-0.034-2.379-1.194-4.601-3.128-5.988c-1.933-1.386-4.409-1.773-6.674-1.043
			c-6.499,2.097-22.151,7.726-27.142,14.685c-6.494,9.053-4.658,21.525,4.093,27.801c3.273,2.348,7.113,3.568,11.092,3.568
			c1.25,0,2.516-0.121,3.78-0.365c5.136-0.991,9.672-3.917,12.773-8.24C372.275,413.476,372.588,396.844,372.49,390.016z
			 M355.077,411.716c-0.854,1.179-2.063,1.971-3.408,2.23c-0.694,0.134-2.048,0.226-3.289-0.664
			c-2.029-1.456-2.319-4.538-0.674-6.833c0.995-1.212,4.718-3.259,9.382-5.304C356.65,406.196,355.906,410.366,355.077,411.716z"/>
	</g>
</g>
<g>
	<g>
		<path d="M91.49,390.016c-0.034-2.379-1.194-4.601-3.128-5.988c-1.933-1.386-4.409-1.773-6.674-1.043
			c-6.499,2.097-22.151,7.726-27.142,14.685c-6.494,9.053-4.658,21.525,4.093,27.801c3.273,2.348,7.113,3.568,11.092,3.568
			c1.25,0,2.515-0.121,3.78-0.365c5.136-0.991,9.672-3.917,12.773-8.24C91.275,413.476,91.588,396.844,91.49,390.016z
			 M74.077,411.716c-0.854,1.179-2.063,1.971-3.408,2.23c-0.694,0.134-2.047,0.226-3.289-0.664
			c-2.029-1.456-2.319-4.538-0.674-6.833c0.995-1.212,4.718-3.259,9.382-5.304C75.65,406.196,74.906,410.366,74.077,411.716z"/>
	</g>
</g>
<g>
	<g>
		<path d="M109.49,443.016c-0.034-2.379-1.195-4.601-3.128-5.988c-1.933-1.386-4.409-1.773-6.674-1.043
			c-6.499,2.097-22.151,7.726-27.142,14.685c-6.494,9.053-4.658,21.525,4.093,27.801c3.273,2.348,7.113,3.568,11.092,3.568
			c1.25,0,2.516-0.121,3.78-0.365c5.136-0.991,9.672-3.917,12.773-8.24C109.275,466.476,109.588,449.844,109.49,443.016z
			 M92.077,464.716c-0.854,1.179-2.063,1.971-3.408,2.23c-0.694,0.134-2.047,0.226-3.289-0.664
			c-2.029-1.456-2.319-4.538-0.674-6.833c0.995-1.212,4.718-3.259,9.382-5.304C93.649,459.196,92.906,463.366,92.077,464.716z"/>
	</g>
</g>
<g>
	<g>
		<path d="M394.49,443.016c-0.034-2.379-1.195-4.601-3.128-5.988c-1.933-1.386-4.41-1.773-6.674-1.043
			c-6.499,2.097-22.151,7.726-27.142,14.685c-6.494,9.053-4.658,21.525,4.093,27.801c3.273,2.348,7.113,3.568,11.092,3.568
			c1.25,0,2.516-0.121,3.78-0.365c5.136-0.991,9.672-3.917,12.773-8.24C394.275,466.476,394.588,449.844,394.49,443.016z
			 M377.077,464.716c-0.854,1.179-2.063,1.971-3.408,2.23c-0.695,0.134-2.047,0.226-3.289-0.664
			c-2.029-1.456-2.319-4.538-0.674-6.833c0.995-1.212,4.718-3.259,9.382-5.304C378.649,459.196,377.906,463.366,377.077,464.716z"/>
	</g>
</g>
<g>
	<g>
		<path d="M327.49,443.016c-0.034-2.379-1.195-4.601-3.128-5.988c-1.933-1.386-4.41-1.773-6.674-1.043
			c-6.499,2.097-22.151,7.726-27.142,14.685c-6.494,9.053-4.658,21.525,4.093,27.801c3.273,2.348,7.113,3.568,11.092,3.568
			c1.25,0,2.516-0.121,3.78-0.365c5.136-0.991,9.672-3.917,12.773-8.24C327.275,466.476,327.588,449.844,327.49,443.016z
			 M310.077,464.716c-0.854,1.179-2.063,1.971-3.408,2.23c-0.694,0.134-2.047,0.226-3.289-0.664
			c-2.029-1.456-2.319-4.538-0.674-6.833c0.995-1.212,4.718-3.259,9.382-5.304C311.649,459.196,310.906,463.366,310.077,464.716z"/>
	</g>
</g>
<g>
</g>
<g>
</g>
<g>
</g>
<g>
</g>
<g>
</g>
<g>
</g>
<g>
</g>
<g>
</g>
<g>
</g>
<g>
</g>
<g>
</g>
<g>
</g>
<g>
</g>
<g>
</g>
<g>
</g>
</svg>
