<?xml version="1.0" encoding="iso-8859-1"?>
<!-- Generator: Adobe Illustrator 19.0.0, SVG Export Plug-In . SVG Version: 6.00 Build 0)  -->
<svg version="1.1" id="Capa_1" xmlns="http://www.w3.org/2000/svg" xmlns:xlink="http://www.w3.org/1999/xlink" x="0px" y="0px"
	 viewBox="0 0 512 512" style="enable-background:new 0 0 512 512;" xml:space="preserve">
<g>
	<g>
		<path d="M439.5,161.349c-15.163,0-27.5,12.337-27.5,27.5c0,4.142,3.357,7.5,7.5,7.5s7.5-3.357,7.5-7.5
			c0-6.893,5.607-12.5,12.5-12.5s12.5,5.607,12.5,12.5s-5.607,12.5-12.5,12.5h-90c-4.143,0-7.5,3.357-7.5,7.5s3.357,7.5,7.5,7.5h90
			c15.163,0,27.5-12.337,27.5-27.5C467,173.686,454.663,161.349,439.5,161.349z"/>
	</g>
</g>
<g>
	<g>
		<path d="M484.5,234.349h-100c-4.143,0-7.5,3.357-7.5,7.5s3.357,7.5,7.5,7.5h100c6.893,0,12.5,5.607,12.5,12.5
			c0,6.893-5.607,12.5-12.5,12.5s-12.5-5.607-12.5-12.5c0-4.143-3.357-7.5-7.5-7.5s-7.5,3.357-7.5,7.5
			c0,15.163,12.337,27.5,27.5,27.5c15.163,0,27.5-12.337,27.5-27.5C512,246.686,499.663,234.349,484.5,234.349z"/>
	</g>
</g>
<g>
	<g>
		<path d="M300,435.849H200c-4.143,0-7.5,3.357-7.5,7.5s3.357,7.5,7.5,7.5h100c6.893,0,12.5,5.607,12.5,12.5s-5.607,12.5-12.5,12.5
			s-12.5-5.607-12.5-12.5c0-4.143-3.357-7.5-7.5-7.5s-7.5,3.357-7.5,7.5c0,15.163,12.337,27.5,27.5,27.5
			c15.163,0,27.5-12.337,27.5-27.5C327.5,448.186,315.163,435.849,300,435.849z"/>
	</g>
</g>
<g>
	<g>
		<path d="M259.623,175.312c-0.226-3.966-3.493-7.075-7.465-7.075h-0.09c-4.296-0.001-7.71,3.613-7.461,7.9
			c1.025,17.626,0.904,34.284,0.394,46.193c-33.601-2.009-104.563-10.986-126.425-35.218
			c-13.683-15.167-21.051-34.348-20.749-54.009c0.248-16.124,5.66-30.964,15.392-42.696c36.647,47.083,87.475,94.516,90.555,97.377
			c1.444,1.342,3.275,2.005,5.103,2.005c2.013,0,4.019-0.805,5.496-2.396c2.819-3.034,2.645-7.78-0.39-10.6
			c-0.752-0.699-53.611-50.024-89.908-96.788c11.916-9.043,26.251-13.479,40.871-13.479c20.853,0,42.27,9.002,57.995,26.432
			c7.877,8.731,13.127,23.619,16.556,40.662c0.698,3.473,3.775,5.955,7.317,5.955h0.042c4.721,0,8.277-4.329,7.332-8.955
			c-3.919-19.195-10.19-36.715-20.11-47.71c-31.979-35.442-83.93-41.435-118.978-14.906C104.249,52.865,95.837,38.483,92.326,26.69
			c-1.123-3.77-4.955-6.205-8.801-5.377c-4.317,0.929-6.86,5.3-5.635,9.456c4.049,13.745,13.769,30.269,26.112,47.364
			C90.614,92.876,83.15,112.021,82.83,132.874c-0.36,23.465,8.379,46.296,24.61,64.286c32.679,36.224,139.838,40.357,144.384,40.516
			c0.089,0.004,0.177,0.005,0.265,0.005c3.927,0,7.21-3.043,7.479-6.99C259.712,228.581,261.275,204.315,259.623,175.312z"/>
	</g>
</g>
<g>
	<g>
		<path d="M449.4,396.905c-3.251-5.257-32.509-51.524-58.701-57.246c-13.389-2.923-27.066-0.806-38.515,5.969
			c-9.333,5.523-16.284,13.597-20.109,23.183c-7.659-2.776-14.082-5.81-18.242-9.056c-3.264-2.548-7.979-1.966-10.526,1.3
			s-1.966,7.979,1.3,10.526c5.746,4.483,14.363,8.461,24.227,11.93c-1.244,23.568,15.897,45.625,41.116,51.134
			c2.279,0.498,4.707,0.727,7.245,0.727c26.624,0,65.281-25.154,69.979-28.278C450.542,404.854,451.528,400.346,449.4,396.905z
			 M373.15,419.991c-16.517-3.608-28.204-16.946-29.291-31.8c29.629,8.242,62.792,12.552,64.903,12.821
			c0.322,0.041,0.643,0.062,0.959,0.062c3.719,0,6.947-2.766,7.43-6.552c0.524-4.109-2.382-7.865-6.49-8.389
			c-13.146-1.677-40.965-6.218-64.227-12.765c2.689-6.08,7.296-11.226,13.389-14.831c8.174-4.837,18.002-6.339,27.675-4.224
			c13.423,2.933,33.18,26.571,45.115,44.262C414.388,409.677,386.558,422.925,373.15,419.991z"/>
	</g>
</g>
<g>
	<g>
		<path d="M252.452,368.866c-0.94-4.454-5.488-6.989-9.688-5.606c-7.5,2.466-18.021,3.374-29.897,3.284
			c0.103-23.98-14.645-45.762-36.866-56.366c-4.977-2.375-10.735,1.22-10.735,6.734v0.05c0,2.875,1.65,5.497,4.246,6.732
			c16.933,8.057,28.225,24.347,28.357,42.285c-40.502-2.57-87.971-12.976-88.657-13.127c-4.032-0.895-8.048,1.655-8.944,5.7
			c-0.896,4.044,1.655,8.048,5.699,8.944c2.813,0.624,48.252,10.583,89.441,13.273c-3.049,8.656-8.807,16.247-16.752,21.913
			c-10.722,7.647-24.112,10.878-37.697,9.106c-21.165-2.765-52.57-37.285-67.533-56.08c13.82-10.268,37.879-26.169,58.201-33.332
			c2.988-1.053,4.98-3.872,4.98-7.04c0-5.169-5.108-8.75-9.987-7.042c-10.056,3.52-21.403,9.049-33.988,16.582
			c-19.004,11.376-33.788,23.096-34.408,23.589c-3.165,2.519-3.763,7.095-1.351,10.342c0.473,0.636,11.75,15.761,27.194,31.636
			c21.478,22.076,39.965,34.262,54.949,36.219c3.087,0.403,6.166,0.603,9.223,0.603c14.136,0,27.765-4.266,39.128-12.369
			c11.808-8.421,19.963-20.127,23.519-33.487c1.145,0.016,2.284,0.027,3.41,0.027c12.817,0,24.364-1.084,32.932-3.854
			C250.892,376.397,253.248,372.637,252.452,368.866z"/>
	</g>
</g>
<g>
	<g>
		<path d="M60.5,234.349h-53c-4.143,0-7.5,3.357-7.5,7.5s3.357,7.5,7.5,7.5h53c4.143,0,7.5-3.358,7.5-7.5
			C68,237.706,64.643,234.349,60.5,234.349z"/>
	</g>
</g>
<g>
	<g>
		<path d="M32,61.349H7.5c-4.143,0-7.5,3.357-7.5,7.5s3.357,7.5,7.5,7.5H32c4.143,0,7.5-3.357,7.5-7.5S36.143,61.349,32,61.349z"/>
	</g>
</g>
<g>
	<g>
		<path d="M359,98.349h-51.5c-4.143,0-7.5,3.357-7.5,7.5s3.357,7.5,7.5,7.5H359c4.143,0,7.5-3.357,7.5-7.5
			S363.143,98.349,359,98.349z"/>
	</g>
</g>
<g>
</g>
<g>
</g>
<g>
</g>
<g>
</g>
<g>
</g>
<g>
</g>
<g>
</g>
<g>
</g>
<g>
</g>
<g>
</g>
<g>
</g>
<g>
</g>
<g>
</g>
<g>
</g>
<g>
</g>
</svg>
